M48
;DRILL file {KiCad 4.0.6} date 04/07/17 01:17:22
;FORMAT={-:-/ absolute / metric / decimal}
FMAT,2
METRIC,TZ
T1C0.300
T2C0.400
T3C0.500
T4C0.600
T5C0.700
T6C0.800
T7C2.700
%
G90
G05
M71
T1
X118.6Y-92.8
X121.1Y-99.5
X121.8Y-64.1
X122.5Y-115.9
X123.8Y-79.9
X126.1Y-100.4
X126.2Y-64.4
X128.2Y-115.9
X129.6Y-79.7
X168.7Y-107.7
X168.825Y-84.1
X169.7Y-82.7
X170.4Y-76.8
X172.8Y-85.1
X173.3Y-116.9
X173.8Y-82.4
X174.3Y-75.9
X175.3Y-79.3
X176.5Y-74.8
X176.5Y-76.1
X176.5Y-76.8
X176.9Y-75.55
X177.1Y-72.85
X177.4Y-78.6
X177.971Y-72.979
X178.1Y-69.7
X178.4Y-119.4
X178.8Y-59.9
X179.001Y-76.199
X179.045Y-70.271
X179.6Y-70.5
X180.Y-64.585
X180.714Y-79.186
X181.Y-70.6
X181.075Y-75.1
X181.1Y-76.6
X181.3Y-65.5
X181.3Y-119.9
X181.7Y-75.3
X181.8Y-119.4
X182.9Y-76.2
X183.Y-81.3
X183.1Y-77.5
X183.45Y-81.922
X184.2Y-96.
X184.2Y-117.6
X185.2Y-90.
X185.3Y-76.3
X185.6Y-77.175
X185.9Y-90.
X185.9Y-95.5
X186.Y-93.2
X186.6Y-76.7
X187.8Y-73.4
X188.Y-71.9
X188.1Y-90.
X188.7Y-89.7
X189.113Y-76.387
X189.139Y-68.361
X189.3Y-65.5
X189.7Y-76.8
T2
X118.4Y-57.3
X125.5Y-94.5
X125.6Y-58.4
X143.99Y-101.01
X144.Y-65.1
X144.Y-79.
X144.Y-115.
X144.4Y-60.
X144.4Y-96.
X145.2Y-71.9
X145.2Y-107.9
X146.Y-57.
X146.1Y-92.9
X147.Y-61.125
X147.Y-97.125
X147.2Y-71.
X147.2Y-76.8
X147.2Y-106.9
X147.2Y-112.8
X149.Y-56.875
X149.Y-92.875
X149.2Y-61.
X149.4Y-96.8
X151.4Y-64.6
X151.4Y-100.5
X152.Y-61.
X152.Y-80.
X152.Y-97.
X153.Y-56.875
X154.Y-94.2
X155.Y-61.125
X155.Y-97.125
X179.2Y-83.3
X181.4Y-73.6
T3
X112.475Y-61.5
X112.475Y-68.5
X112.475Y-75.5
X112.475Y-82.5
X112.475Y-97.5
X112.475Y-104.5
X112.475Y-111.5
X112.475Y-118.5
X113.068Y-60.068
X113.068Y-62.932
X113.068Y-67.068
X113.068Y-69.932
X113.068Y-74.068
X113.068Y-76.932
X113.068Y-81.068
X113.068Y-83.932
X113.068Y-96.068
X113.068Y-98.932
X113.068Y-103.068
X113.068Y-105.932
X113.068Y-110.068
X113.068Y-112.932
X113.068Y-117.068
X113.068Y-119.932
X114.5Y-59.475
X114.5Y-63.525
X114.5Y-66.475
X114.5Y-70.525
X114.5Y-73.475
X114.5Y-77.525
X114.5Y-80.475
X114.5Y-84.525
X114.5Y-95.475
X114.5Y-99.525
X114.5Y-102.475
X114.5Y-106.525
X114.5Y-109.475
X114.5Y-113.525
X114.5Y-116.475
X114.5Y-120.525
X115.932Y-60.068
X115.932Y-62.932
X115.932Y-67.068
X115.932Y-69.932
X115.932Y-74.068
X115.932Y-76.932
X115.932Y-81.068
X115.932Y-83.932
X115.932Y-96.068
X115.932Y-98.932
X115.932Y-103.068
X115.932Y-105.932
X115.932Y-110.068
X115.932Y-112.932
X115.932Y-117.068
X115.932Y-119.932
X116.525Y-61.5
X116.525Y-68.5
X116.525Y-75.5
X116.525Y-82.5
X116.525Y-97.5
X116.525Y-104.5
X116.525Y-111.5
X116.525Y-118.5
T4
X120.1Y-101.2
X120.4Y-65.3
X125.7Y-78.4
X125.9Y-114.
X126.1Y-102.2
X126.4Y-65.5
X127.Y-55.
X127.Y-91.
X131.Y-55.
X131.Y-91.
X131.6Y-78.4
X131.9Y-114.1
X132.1Y-113.
X132.4Y-77.2
X133.75Y-69.75
X133.75Y-71.25
X133.75Y-72.75
X133.75Y-74.25
X133.75Y-105.75
X133.75Y-107.25
X133.75Y-108.75
X133.75Y-110.25
X135.Y-69.
X135.Y-70.5
X135.Y-72.
X135.Y-73.5
X135.Y-75.
X135.Y-105.
X135.Y-106.5
X135.Y-108.
X135.Y-109.5
X135.Y-111.
X136.25Y-69.75
X136.25Y-71.25
X136.25Y-72.75
X136.25Y-74.25
X136.25Y-105.75
X136.25Y-107.25
X136.25Y-108.75
X136.25Y-110.25
X137.5Y-69.
X137.5Y-70.5
X137.5Y-72.
X137.5Y-73.5
X137.5Y-75.
X137.5Y-105.
X137.5Y-106.5
X137.5Y-108.
X137.5Y-109.5
X137.5Y-111.
X137.8Y-66.5
X138.Y-102.5
X138.1Y-113.
X138.4Y-77.2
X138.75Y-69.75
X138.75Y-71.25
X138.75Y-72.75
X138.75Y-74.25
X138.75Y-105.75
X138.75Y-107.25
X138.75Y-108.75
X138.75Y-110.25
X139.Y-55.
X139.Y-91.
X140.Y-69.
X140.Y-70.5
X140.Y-72.
X140.Y-73.5
X140.Y-75.
X140.Y-105.
X140.Y-106.5
X140.Y-108.
X140.Y-109.5
X140.Y-111.
X141.25Y-69.75
X141.25Y-71.25
X141.25Y-72.75
X141.25Y-74.25
X141.25Y-105.75
X141.25Y-107.25
X141.25Y-108.75
X141.25Y-110.25
X142.5Y-69.
X142.5Y-70.5
X142.5Y-72.
X142.5Y-73.5
X142.5Y-75.
X142.5Y-105.
X142.5Y-106.5
X142.5Y-108.
X142.5Y-109.5
X142.5Y-111.
X143.Y-55.
X143.Y-57.9
X143.Y-91.
X143.Y-93.9
X144.1Y-102.8
X144.2Y-66.8
X145.5Y-96.
X145.7Y-60.
X147.Y-55.
X147.Y-91.
X148.3Y-69.7
X148.3Y-74.3
X148.3Y-105.7
X148.3Y-110.3
X149.7Y-71.1
X149.7Y-72.
X149.7Y-72.9
X149.7Y-107.1
X149.7Y-108.
X149.7Y-108.9
X150.6Y-71.1
X150.6Y-72.
X150.6Y-72.9
X150.6Y-108.9
X150.6Y-107.1
X150.6Y-108.
X151.Y-55.
X151.Y-57.
X151.Y-91.
X151.Y-93.
X151.5Y-71.1
X151.5Y-72.
X151.5Y-72.9
X151.5Y-107.1
X151.5Y-108.9
X151.5Y-108.
X152.Y-116.
X152.875Y-105.7
X152.9Y-69.7
X152.9Y-74.3
X152.9Y-110.3
X155.Y-57.
X155.Y-93.
X155.5Y-112.8
X155.6Y-76.8
X170.3Y-84.2
X170.4Y-67.
X170.5Y-80.3
X170.7Y-87.
X170.7Y-88.4
X170.7Y-90.
X170.7Y-91.8
X170.7Y-94.1
X171.4Y-76.3
X171.4Y-78.6
X171.4Y-82.9
X171.5Y-99.
X172.Y-71.6
X172.4Y-67.
X172.4Y-68.5
X172.5Y-69.9
X172.6Y-86.1
X172.6Y-96.1
X172.7Y-93.
X173.Y-108.
X173.7Y-87.3
X174.Y-70.8
X174.1Y-69.7
X174.4Y-67.
X174.7Y-88.4
X174.7Y-91.8
X174.7Y-94.1
X174.9Y-85.2
X175.1Y-90.
X175.2Y-70.1
X176.Y-96.1
X176.Y-108.
X177.3Y-94.9
X177.6Y-88.8
X178.8Y-90.8
X178.8Y-91.8
X178.8Y-92.9
X178.9Y-107.7
X180.Y-90.8
X180.Y-92.875
X180.Y-95.
X180.Y-97.7
X180.3Y-88.7
X181.2Y-90.8
X181.2Y-91.8
X181.2Y-92.9
X181.2Y-94.
X181.2Y-95.
X181.9Y-107.7
X182.Y-84.
X182.3Y-106.3
X182.4Y-115.2
X182.9Y-88.7
X183.2Y-68.1
X183.3Y-98.
X184.1Y-79.9
X184.4Y-65.5
X184.5Y-107.8
X185.4Y-59.
X185.6Y-108.9
X185.7Y-100.7
X186.Y-111.
X187.3Y-70.8
X188.Y-98.
X188.4Y-100.7
X188.5Y-104.3
X188.5Y-107.8
X188.7Y-110.
X189.Y-70.
X189.Y-73.5
X190.Y-120.
X195.Y-60.
X195.Y-70.
X195.Y-75.
X195.Y-80.
X195.Y-85.
X195.Y-95.
X195.Y-100.
X195.Y-105.
X195.Y-110.
X195.Y-115.
X195.Y-120.
T5
X170.Y-69.5
X170.Y-71.
X170.Y-72.5
X170.Y-74.
X191.4Y-67.8
X191.4Y-69.3
X191.4Y-70.8
X191.4Y-74.4
X191.4Y-75.9
X191.4Y-77.4
X191.4Y-81.
X191.4Y-82.5
X191.4Y-84.
X191.4Y-85.5
X191.4Y-100.8
X191.4Y-102.3
X191.4Y-103.8
X191.4Y-107.4
X191.4Y-108.9
X191.4Y-110.4
X191.4Y-114.
X191.4Y-115.5
X191.4Y-117.
X191.4Y-118.5
T6
X170.8Y-113.4
X171.Y-105.9
X173.1Y-100.8
X173.2Y-109.7
X174.5Y-104.05
X174.6Y-112.95
X176.8Y-97.1
X177.Y-66.
X182.8Y-91.
X184.6Y-110.
T7
X114.5Y-61.5
X114.5Y-68.5
X114.5Y-75.5
X114.5Y-82.5
X114.5Y-97.5
X114.5Y-104.5
X114.5Y-111.5
X114.5Y-118.5
T0
M30
