G04 #@! TF.FileFunction,Profile,NP*
%FSLAX46Y46*%
G04 Gerber Fmt 4.6, Leading zero omitted, Abs format (unit mm)*
G04 Created by KiCad (PCBNEW 4.0.6) date 04/07/17 01:17:18*
%MOMM*%
%LPD*%
G01*
G04 APERTURE LIST*
%ADD10C,0.100000*%
%ADD11C,0.150000*%
G04 APERTURE END LIST*
D10*
D11*
X132800000Y-54000000D02*
X125200000Y-54000000D01*
X132800000Y-54000000D02*
G75*
G03X135200000Y-54000000I1200000J0D01*
G01*
X157400000Y-92100000D02*
G75*
G03X157000000Y-92500000I0J-400000D01*
G01*
X157000000Y-84500000D02*
G75*
G03X157400000Y-84900000I400000J0D01*
G01*
X159600000Y-84900000D02*
X157400000Y-84900000D01*
X159600000Y-92100000D02*
X157400000Y-92100000D01*
X159600000Y-84900000D02*
G75*
G03X160000000Y-84500000I0J400000D01*
G01*
X160000000Y-92500000D02*
G75*
G03X159600000Y-92100000I-400000J0D01*
G01*
X160000000Y-61400000D02*
X160000000Y-84500000D01*
X160000000Y-118600000D02*
X160000000Y-92500000D01*
X159600000Y-91100000D02*
G75*
G03X160000000Y-90700000I0J400000D01*
G01*
X160000000Y-86300000D02*
G75*
G03X159600000Y-85900000I-400000J0D01*
G01*
X157000000Y-91100000D02*
X159600000Y-91100000D01*
X157000000Y-85900000D02*
X159600000Y-85900000D01*
X157000000Y-59600000D02*
X157000000Y-55200000D01*
X160000000Y-57000000D02*
X160000000Y-59600000D01*
X157400000Y-61000000D02*
G75*
G03X157000000Y-61400000I0J-400000D01*
G01*
X157000000Y-59600000D02*
G75*
G03X157400000Y-60000000I400000J0D01*
G01*
X160000000Y-61400000D02*
G75*
G03X159600000Y-61000000I-400000J0D01*
G01*
X159600000Y-60000000D02*
G75*
G03X160000000Y-59600000I0J400000D01*
G01*
X159600000Y-61000000D02*
X157400000Y-61000000D01*
X159600000Y-60000000D02*
X157400000Y-60000000D01*
X113000000Y-54000000D02*
G75*
G03X111000000Y-56000000I0J-2000000D01*
G01*
X111000000Y-85000000D02*
G75*
G03X113000000Y-87000000I2000000J0D01*
G01*
X113000000Y-90000000D02*
G75*
G03X111000000Y-92000000I0J-2000000D01*
G01*
X111000000Y-121000000D02*
G75*
G03X113000000Y-123000000I2000000J0D01*
G01*
X160000000Y-120400000D02*
X160000000Y-123000000D01*
X157000000Y-120400000D02*
X157000000Y-121800000D01*
X157400000Y-120000000D02*
X159600000Y-120000000D01*
X159600000Y-119000000D02*
X157400000Y-119000000D01*
X159600000Y-119000000D02*
G75*
G03X160000000Y-118600000I0J400000D01*
G01*
X160000000Y-120400000D02*
G75*
G03X159600000Y-120000000I-400000J0D01*
G01*
X157000000Y-118600000D02*
G75*
G03X157400000Y-119000000I400000J0D01*
G01*
X157400000Y-120000000D02*
G75*
G03X157000000Y-120400000I0J-400000D01*
G01*
X130400000Y-87000000D02*
X132800000Y-87000000D01*
X130400000Y-90000000D02*
X132800000Y-90000000D01*
X130000000Y-89600000D02*
G75*
G03X130400000Y-90000000I400000J0D01*
G01*
X130400000Y-87000000D02*
G75*
G03X130000000Y-87400000I0J-400000D01*
G01*
X130000000Y-87400000D02*
X130000000Y-89600000D01*
X128600000Y-90000000D02*
G75*
G03X129000000Y-89600000I0J400000D01*
G01*
X129000000Y-87400000D02*
G75*
G03X128600000Y-87000000I-400000J0D01*
G01*
X129000000Y-87400000D02*
X129000000Y-89600000D01*
X160000000Y-123000000D02*
X161800000Y-123000000D01*
X164200000Y-123000000D02*
X171800000Y-123000000D01*
X161800000Y-57000000D02*
X160000000Y-57000000D01*
X171800000Y-57000000D02*
X164200000Y-57000000D01*
X171800000Y-57000000D02*
G75*
G03X174200000Y-57000000I1200000J0D01*
G01*
X161800000Y-57000000D02*
G75*
G03X164200000Y-57000000I1200000J0D01*
G01*
X164200000Y-123000000D02*
G75*
G03X161800000Y-123000000I-1200000J0D01*
G01*
X174200000Y-123000000D02*
G75*
G03X171800000Y-123000000I-1200000J0D01*
G01*
X164200000Y-90000000D02*
G75*
G03X164200000Y-90000000I-1200000J0D01*
G01*
X174200000Y-90000000D02*
G75*
G03X174200000Y-90000000I-1200000J0D01*
G01*
X196000000Y-121800000D02*
X195000000Y-121800000D01*
X196000000Y-91200000D02*
X196000000Y-121800000D01*
X195000000Y-58200000D02*
X196000000Y-58200000D01*
X193800000Y-57000000D02*
G75*
G03X195000000Y-58200000I1200000J0D01*
G01*
X195000000Y-91200000D02*
X196000000Y-91200000D01*
X195000000Y-88800000D02*
X196000000Y-88800000D01*
X195000000Y-88800000D02*
G75*
G03X195000000Y-91200000I0J-1200000D01*
G01*
X195000000Y-121800000D02*
G75*
G03X193800000Y-123000000I0J-1200000D01*
G01*
X196000000Y-58200000D02*
X196000000Y-88800000D01*
X174200000Y-57000000D02*
X193800000Y-57000000D01*
X160000000Y-90700000D02*
X160000000Y-86300000D01*
X193800000Y-123000000D02*
X174200000Y-123000000D01*
X156000000Y-85900000D02*
X157000000Y-85900000D01*
X135200000Y-87000000D02*
X154900000Y-87000000D01*
X125200000Y-87000000D02*
X128600000Y-87000000D01*
X156000000Y-55200000D02*
X157000000Y-55200000D01*
X135200000Y-54000000D02*
X154800000Y-54000000D01*
X154800000Y-54000000D02*
G75*
G03X156000000Y-55200000I1200000J0D01*
G01*
X122800000Y-54000000D02*
G75*
G03X125200000Y-54000000I1200000J0D01*
G01*
X156000000Y-85900000D02*
G75*
G03X154900000Y-87000000I0J-1100000D01*
G01*
X135200000Y-87000000D02*
G75*
G03X132800000Y-87000000I-1200000J0D01*
G01*
X125200000Y-87000000D02*
G75*
G03X122800000Y-87000000I-1200000J0D01*
G01*
X135200000Y-123000000D02*
X154800000Y-123000000D01*
X125200000Y-123000000D02*
X132800000Y-123000000D01*
X135200000Y-90000000D02*
X154900000Y-90000000D01*
X125200000Y-90000000D02*
X128600000Y-90000000D01*
X135200000Y-123000000D02*
G75*
G03X132800000Y-123000000I-1200000J0D01*
G01*
X132800000Y-90000000D02*
G75*
G03X135200000Y-90000000I1200000J0D01*
G01*
X122800000Y-123000000D02*
X113000000Y-123000000D01*
X125200000Y-123000000D02*
G75*
G03X122800000Y-123000000I-1200000J0D01*
G01*
X113000000Y-90000000D02*
X122800000Y-90000000D01*
X122800000Y-90000000D02*
G75*
G03X125200000Y-90000000I1200000J0D01*
G01*
X157000000Y-91100000D02*
X156000000Y-91100000D01*
X154900000Y-90000000D02*
G75*
G03X156000000Y-91100000I1100000J0D01*
G01*
X156000000Y-121800000D02*
X157000000Y-121800000D01*
X156000000Y-121800000D02*
G75*
G03X154800000Y-123000000I0J-1200000D01*
G01*
X111000000Y-121000000D02*
X111000000Y-92000000D01*
X157000000Y-92500000D02*
X157000000Y-118600000D01*
X122800000Y-87000000D02*
X113000000Y-87000000D01*
X157000000Y-61400000D02*
X157000000Y-84500000D01*
X113000000Y-54000000D02*
X122800000Y-54000000D01*
X111000000Y-85000000D02*
X111000000Y-56000000D01*
M02*
