M48
;DRILL file {KiCad 4.0.6} date 04/07/17 01:03:10
;FORMAT={3:3/ absolute / metric / suppress trailing zeros}
FMAT,2
METRIC,LZ
T1C0.300
T2C0.400
T3C0.500
T4C0.600
T5C0.700
T6C0.800
T7C2.700
%
G90
G05
M71
T1
X1186Y-0928
X1211Y-0995
X1218Y-0641
X1225Y-1159
X1238Y-0799
X1261Y-1004
X1262Y-0644
X1282Y-1159
X1296Y-0797
X1687Y-1077
X168825Y-0841
X1697Y-0827
X1704Y-0768
X1728Y-0851
X1733Y-1169
X1738Y-0824
X1743Y-0759
X1753Y-0793
X1765Y-0748
X1765Y-0761
X1765Y-0768
X1769Y-07555
X1771Y-07285
X1774Y-0786
X177971Y-072979
X1781Y-0697
X1784Y-1194
X1788Y-0599
X179001Y-076199
X179045Y-070271
X1796Y-0705
X18Y-064585
X180714Y-079186
X181Y-0706
X181075Y-0751
X1811Y-0766
X1813Y-0655
X1813Y-1199
X1817Y-0753
X1818Y-1194
X1829Y-0762
X183Y-0813
X1831Y-0775
X18345Y-081922
X1842Y-096
X1842Y-1176
X1852Y-09
X1853Y-0763
X1856Y-077175
X1859Y-09
X1859Y-0955
X186Y-0932
X1866Y-0767
X1878Y-0734
X188Y-0719
X1881Y-09
X1887Y-0897
X189113Y-076387
X189139Y-068361
X1893Y-0655
X1897Y-0768
T2
X1184Y-0573
X1255Y-0945
X1256Y-0584
X14399Y-10101
X144Y-0651
X144Y-079
X144Y-115
X1444Y-06
X1444Y-096
X1452Y-0719
X1452Y-1079
X146Y-057
X1461Y-0929
X147Y-061125
X147Y-097125
X1472Y-071
X1472Y-0768
X1472Y-1069
X1472Y-1128
X149Y-056875
X149Y-092875
X1492Y-061
X1494Y-0968
X1514Y-0646
X1514Y-1005
X152Y-061
X152Y-08
X152Y-097
X153Y-056875
X154Y-0942
X155Y-061125
X155Y-097125
X1792Y-0833
X1814Y-0736
T3
X112475Y-0615
X112475Y-0685
X112475Y-0755
X112475Y-0825
X112475Y-0975
X112475Y-1045
X112475Y-1115
X112475Y-1185
X113068Y-060068
X113068Y-062932
X113068Y-067068
X113068Y-069932
X113068Y-074068
X113068Y-076932
X113068Y-081068
X113068Y-083932
X113068Y-096068
X113068Y-098932
X113068Y-103068
X113068Y-105932
X113068Y-110068
X113068Y-112932
X113068Y-117068
X113068Y-119932
X1145Y-059475
X1145Y-063525
X1145Y-066475
X1145Y-070525
X1145Y-073475
X1145Y-077525
X1145Y-080475
X1145Y-084525
X1145Y-095475
X1145Y-099525
X1145Y-102475
X1145Y-106525
X1145Y-109475
X1145Y-113525
X1145Y-116475
X1145Y-120525
X115932Y-060068
X115932Y-062932
X115932Y-067068
X115932Y-069932
X115932Y-074068
X115932Y-076932
X115932Y-081068
X115932Y-083932
X115932Y-096068
X115932Y-098932
X115932Y-103068
X115932Y-105932
X115932Y-110068
X115932Y-112932
X115932Y-117068
X115932Y-119932
X116525Y-0615
X116525Y-0685
X116525Y-0755
X116525Y-0825
X116525Y-0975
X116525Y-1045
X116525Y-1115
X116525Y-1185
T4
X1201Y-1012
X1204Y-0653
X1257Y-0784
X1259Y-114
X1261Y-1022
X1264Y-0655
X127Y-055
X127Y-091
X131Y-055
X131Y-091
X1316Y-0784
X1319Y-1141
X1321Y-113
X1324Y-0772
X13375Y-06975
X13375Y-07125
X13375Y-07275
X13375Y-07425
X13375Y-10575
X13375Y-10725
X13375Y-10875
X13375Y-11025
X135Y-069
X135Y-0705
X135Y-072
X135Y-0735
X135Y-075
X135Y-105
X135Y-1065
X135Y-108
X135Y-1095
X135Y-111
X13625Y-06975
X13625Y-07125
X13625Y-07275
X13625Y-07425
X13625Y-10575
X13625Y-10725
X13625Y-10875
X13625Y-11025
X1375Y-069
X1375Y-0705
X1375Y-072
X1375Y-0735
X1375Y-075
X1375Y-105
X1375Y-1065
X1375Y-108
X1375Y-1095
X1375Y-111
X1378Y-0665
X138Y-1025
X1381Y-113
X1384Y-0772
X13875Y-06975
X13875Y-07125
X13875Y-07275
X13875Y-07425
X13875Y-10575
X13875Y-10725
X13875Y-10875
X13875Y-11025
X139Y-055
X139Y-091
X14Y-069
X14Y-0705
X14Y-072
X14Y-0735
X14Y-075
X14Y-105
X14Y-1065
X14Y-108
X14Y-1095
X14Y-111
X14125Y-06975
X14125Y-07125
X14125Y-07275
X14125Y-07425
X14125Y-10575
X14125Y-10725
X14125Y-10875
X14125Y-11025
X1425Y-069
X1425Y-0705
X1425Y-072
X1425Y-0735
X1425Y-075
X1425Y-105
X1425Y-1065
X1425Y-108
X1425Y-1095
X1425Y-111
X143Y-055
X143Y-0579
X143Y-091
X143Y-0939
X1441Y-1028
X1442Y-0668
X1455Y-096
X1457Y-06
X147Y-055
X147Y-091
X1483Y-0697
X1483Y-0743
X1483Y-1057
X1483Y-1103
X1497Y-0711
X1497Y-072
X1497Y-0729
X1497Y-1071
X1497Y-108
X1497Y-1089
X1506Y-0711
X1506Y-072
X1506Y-0729
X1506Y-1089
X1506Y-1071
X1506Y-108
X151Y-055
X151Y-057
X151Y-091
X151Y-093
X1515Y-0711
X1515Y-072
X1515Y-0729
X1515Y-1071
X1515Y-1089
X1515Y-108
X152Y-116
X152875Y-1057
X1529Y-0697
X1529Y-0743
X1529Y-1103
X155Y-057
X155Y-093
X1555Y-1128
X1556Y-0768
X1703Y-0842
X1704Y-067
X1705Y-0803
X1707Y-087
X1707Y-0884
X1707Y-09
X1707Y-0918
X1707Y-0941
X1714Y-0763
X1714Y-0786
X1714Y-0829
X1715Y-099
X172Y-0716
X1724Y-067
X1724Y-0685
X1725Y-0699
X1726Y-0861
X1726Y-0961
X1727Y-093
X173Y-108
X1737Y-0873
X174Y-0708
X1741Y-0697
X1744Y-067
X1747Y-0884
X1747Y-0918
X1747Y-0941
X1749Y-0852
X1751Y-09
X1752Y-0701
X176Y-0961
X176Y-108
X1773Y-0949
X1776Y-0888
X1788Y-0908
X1788Y-0918
X1788Y-0929
X1789Y-1077
X18Y-0908
X18Y-092875
X18Y-095
X18Y-0977
X1803Y-0887
X1812Y-0908
X1812Y-0918
X1812Y-0929
X1812Y-094
X1812Y-095
X1819Y-1077
X182Y-084
X1823Y-1063
X1824Y-1152
X1829Y-0887
X1832Y-0681
X1833Y-098
X1841Y-0799
X1844Y-0655
X1845Y-1078
X1854Y-059
X1856Y-1089
X1857Y-1007
X186Y-111
X1873Y-0708
X188Y-098
X1884Y-1007
X1885Y-1043
X1885Y-1078
X1887Y-11
X189Y-07
X189Y-0735
X19Y-12
X195Y-06
X195Y-07
X195Y-075
X195Y-08
X195Y-085
X195Y-095
X195Y-1
X195Y-105
X195Y-11
X195Y-115
X195Y-12
T5
X17Y-0695
X17Y-071
X17Y-0725
X17Y-074
X1914Y-0678
X1914Y-0693
X1914Y-0708
X1914Y-0744
X1914Y-0759
X1914Y-0774
X1914Y-081
X1914Y-0825
X1914Y-084
X1914Y-0855
X1914Y-1008
X1914Y-1023
X1914Y-1038
X1914Y-1074
X1914Y-1089
X1914Y-1104
X1914Y-114
X1914Y-1155
X1914Y-117
X1914Y-1185
T6
X1708Y-1134
X171Y-1059
X1731Y-1008
X1732Y-1097
X1745Y-10405
X1746Y-11295
X1768Y-0971
X177Y-066
X1828Y-091
X1846Y-11
T7
X1145Y-0615
X1145Y-0685
X1145Y-0755
X1145Y-0825
X1145Y-0975
X1145Y-1045
X1145Y-1115
X1145Y-1185
T0
M30
