G04 #@! TF.FileFunction,Legend,Bot*
%FSLAX46Y46*%
G04 Gerber Fmt 4.6, Leading zero omitted, Abs format (unit mm)*
G04 Created by KiCad (PCBNEW 4.0.6) date 04/07/17 01:17:18*
%MOMM*%
%LPD*%
G01*
G04 APERTURE LIST*
%ADD10C,0.100000*%
%ADD11C,0.200000*%
%ADD12C,0.120000*%
%ADD13C,0.150000*%
G04 APERTURE END LIST*
D10*
D11*
X195438095Y-74466667D02*
X194961904Y-74466667D01*
X195533333Y-74752381D02*
X195200000Y-73752381D01*
X194866666Y-74752381D01*
X194533333Y-74752381D02*
X194533333Y-73752381D01*
X193961904Y-74752381D01*
X193961904Y-73752381D01*
X193533333Y-73847619D02*
X193485714Y-73800000D01*
X193390476Y-73752381D01*
X193152380Y-73752381D01*
X193057142Y-73800000D01*
X193009523Y-73847619D01*
X192961904Y-73942857D01*
X192961904Y-74038095D01*
X193009523Y-74180952D01*
X193580952Y-74752381D01*
X192961904Y-74752381D01*
X195338095Y-68066667D02*
X194861904Y-68066667D01*
X195433333Y-68352381D02*
X195100000Y-67352381D01*
X194766666Y-68352381D01*
X194433333Y-68352381D02*
X194433333Y-67352381D01*
X193861904Y-68352381D01*
X193861904Y-67352381D01*
X192861904Y-68352381D02*
X193433333Y-68352381D01*
X193147619Y-68352381D02*
X193147619Y-67352381D01*
X193242857Y-67495238D01*
X193338095Y-67590476D01*
X193433333Y-67638095D01*
X195861905Y-69371429D02*
X195100000Y-69371429D01*
X195480952Y-69752381D02*
X195480952Y-68990476D01*
X194719048Y-68752381D02*
X194100000Y-68752381D01*
X194433334Y-69133333D01*
X194290476Y-69133333D01*
X194195238Y-69180952D01*
X194147619Y-69228571D01*
X194100000Y-69323810D01*
X194100000Y-69561905D01*
X194147619Y-69657143D01*
X194195238Y-69704762D01*
X194290476Y-69752381D01*
X194576191Y-69752381D01*
X194671429Y-69704762D01*
X194719048Y-69657143D01*
X193814286Y-68752381D02*
X193480953Y-69752381D01*
X193147619Y-68752381D01*
X192909524Y-68752381D02*
X192290476Y-68752381D01*
X192623810Y-69133333D01*
X192480952Y-69133333D01*
X192385714Y-69180952D01*
X192338095Y-69228571D01*
X192290476Y-69323810D01*
X192290476Y-69561905D01*
X192338095Y-69657143D01*
X192385714Y-69704762D01*
X192480952Y-69752381D01*
X192766667Y-69752381D01*
X192861905Y-69704762D01*
X192909524Y-69657143D01*
X195861905Y-75971429D02*
X195100000Y-75971429D01*
X195480952Y-76352381D02*
X195480952Y-75590476D01*
X194719048Y-75352381D02*
X194100000Y-75352381D01*
X194433334Y-75733333D01*
X194290476Y-75733333D01*
X194195238Y-75780952D01*
X194147619Y-75828571D01*
X194100000Y-75923810D01*
X194100000Y-76161905D01*
X194147619Y-76257143D01*
X194195238Y-76304762D01*
X194290476Y-76352381D01*
X194576191Y-76352381D01*
X194671429Y-76304762D01*
X194719048Y-76257143D01*
X193814286Y-75352381D02*
X193480953Y-76352381D01*
X193147619Y-75352381D01*
X192909524Y-75352381D02*
X192290476Y-75352381D01*
X192623810Y-75733333D01*
X192480952Y-75733333D01*
X192385714Y-75780952D01*
X192338095Y-75828571D01*
X192290476Y-75923810D01*
X192290476Y-76161905D01*
X192338095Y-76257143D01*
X192385714Y-76304762D01*
X192480952Y-76352381D01*
X192766667Y-76352381D01*
X192861905Y-76304762D01*
X192909524Y-76257143D01*
X194861904Y-70500000D02*
X194957142Y-70452381D01*
X195099999Y-70452381D01*
X195242857Y-70500000D01*
X195338095Y-70595238D01*
X195385714Y-70690476D01*
X195433333Y-70880952D01*
X195433333Y-71023810D01*
X195385714Y-71214286D01*
X195338095Y-71309524D01*
X195242857Y-71404762D01*
X195099999Y-71452381D01*
X195004761Y-71452381D01*
X194861904Y-71404762D01*
X194814285Y-71357143D01*
X194814285Y-71023810D01*
X195004761Y-71023810D01*
X194385714Y-71452381D02*
X194385714Y-70452381D01*
X193814285Y-71452381D01*
X193814285Y-70452381D01*
X193338095Y-71452381D02*
X193338095Y-70452381D01*
X193100000Y-70452381D01*
X192957142Y-70500000D01*
X192861904Y-70595238D01*
X192814285Y-70690476D01*
X192766666Y-70880952D01*
X192766666Y-71023810D01*
X192814285Y-71214286D01*
X192861904Y-71309524D01*
X192957142Y-71404762D01*
X193100000Y-71452381D01*
X193338095Y-71452381D01*
X194861904Y-77100000D02*
X194957142Y-77052381D01*
X195099999Y-77052381D01*
X195242857Y-77100000D01*
X195338095Y-77195238D01*
X195385714Y-77290476D01*
X195433333Y-77480952D01*
X195433333Y-77623810D01*
X195385714Y-77814286D01*
X195338095Y-77909524D01*
X195242857Y-78004762D01*
X195099999Y-78052381D01*
X195004761Y-78052381D01*
X194861904Y-78004762D01*
X194814285Y-77957143D01*
X194814285Y-77623810D01*
X195004761Y-77623810D01*
X194385714Y-78052381D02*
X194385714Y-77052381D01*
X193814285Y-78052381D01*
X193814285Y-77052381D01*
X193338095Y-78052381D02*
X193338095Y-77052381D01*
X193100000Y-77052381D01*
X192957142Y-77100000D01*
X192861904Y-77195238D01*
X192814285Y-77290476D01*
X192766666Y-77480952D01*
X192766666Y-77623810D01*
X192814285Y-77814286D01*
X192861904Y-77909524D01*
X192957142Y-78004762D01*
X193100000Y-78052381D01*
X193338095Y-78052381D01*
X194861904Y-80600000D02*
X194957142Y-80552381D01*
X195099999Y-80552381D01*
X195242857Y-80600000D01*
X195338095Y-80695238D01*
X195385714Y-80790476D01*
X195433333Y-80980952D01*
X195433333Y-81123810D01*
X195385714Y-81314286D01*
X195338095Y-81409524D01*
X195242857Y-81504762D01*
X195099999Y-81552381D01*
X195004761Y-81552381D01*
X194861904Y-81504762D01*
X194814285Y-81457143D01*
X194814285Y-81123810D01*
X195004761Y-81123810D01*
X194385714Y-81552381D02*
X194385714Y-80552381D01*
X193814285Y-81552381D01*
X193814285Y-80552381D01*
X193338095Y-81552381D02*
X193338095Y-80552381D01*
X193100000Y-80552381D01*
X192957142Y-80600000D01*
X192861904Y-80695238D01*
X192814285Y-80790476D01*
X192766666Y-80980952D01*
X192766666Y-81123810D01*
X192814285Y-81314286D01*
X192861904Y-81409524D01*
X192957142Y-81504762D01*
X193100000Y-81552381D01*
X193338095Y-81552381D01*
X194761904Y-103300000D02*
X194857142Y-103252381D01*
X194999999Y-103252381D01*
X195142857Y-103300000D01*
X195238095Y-103395238D01*
X195285714Y-103490476D01*
X195333333Y-103680952D01*
X195333333Y-103823810D01*
X195285714Y-104014286D01*
X195238095Y-104109524D01*
X195142857Y-104204762D01*
X194999999Y-104252381D01*
X194904761Y-104252381D01*
X194761904Y-104204762D01*
X194714285Y-104157143D01*
X194714285Y-103823810D01*
X194904761Y-103823810D01*
X194285714Y-104252381D02*
X194285714Y-103252381D01*
X193714285Y-104252381D01*
X193714285Y-103252381D01*
X193238095Y-104252381D02*
X193238095Y-103252381D01*
X193000000Y-103252381D01*
X192857142Y-103300000D01*
X192761904Y-103395238D01*
X192714285Y-103490476D01*
X192666666Y-103680952D01*
X192666666Y-103823810D01*
X192714285Y-104014286D01*
X192761904Y-104109524D01*
X192857142Y-104204762D01*
X193000000Y-104252381D01*
X193238095Y-104252381D01*
X195285714Y-102371429D02*
X194523809Y-102371429D01*
X194904761Y-102752381D02*
X194904761Y-101990476D01*
X193571428Y-101752381D02*
X194047619Y-101752381D01*
X194095238Y-102228571D01*
X194047619Y-102180952D01*
X193952381Y-102133333D01*
X193714285Y-102133333D01*
X193619047Y-102180952D01*
X193571428Y-102228571D01*
X193523809Y-102323810D01*
X193523809Y-102561905D01*
X193571428Y-102657143D01*
X193619047Y-102704762D01*
X193714285Y-102752381D01*
X193952381Y-102752381D01*
X194047619Y-102704762D01*
X194095238Y-102657143D01*
X193238095Y-101752381D02*
X192904762Y-102752381D01*
X192571428Y-101752381D01*
X195385714Y-108971429D02*
X194623809Y-108971429D01*
X195004761Y-109352381D02*
X195004761Y-108590476D01*
X193671428Y-108352381D02*
X194147619Y-108352381D01*
X194195238Y-108828571D01*
X194147619Y-108780952D01*
X194052381Y-108733333D01*
X193814285Y-108733333D01*
X193719047Y-108780952D01*
X193671428Y-108828571D01*
X193623809Y-108923810D01*
X193623809Y-109161905D01*
X193671428Y-109257143D01*
X193719047Y-109304762D01*
X193814285Y-109352381D01*
X194052381Y-109352381D01*
X194147619Y-109304762D01*
X194195238Y-109257143D01*
X193338095Y-108352381D02*
X193004762Y-109352381D01*
X192671428Y-108352381D01*
X194761904Y-110000000D02*
X194857142Y-109952381D01*
X194999999Y-109952381D01*
X195142857Y-110000000D01*
X195238095Y-110095238D01*
X195285714Y-110190476D01*
X195333333Y-110380952D01*
X195333333Y-110523810D01*
X195285714Y-110714286D01*
X195238095Y-110809524D01*
X195142857Y-110904762D01*
X194999999Y-110952381D01*
X194904761Y-110952381D01*
X194761904Y-110904762D01*
X194714285Y-110857143D01*
X194714285Y-110523810D01*
X194904761Y-110523810D01*
X194285714Y-110952381D02*
X194285714Y-109952381D01*
X193714285Y-110952381D01*
X193714285Y-109952381D01*
X193238095Y-110952381D02*
X193238095Y-109952381D01*
X193000000Y-109952381D01*
X192857142Y-110000000D01*
X192761904Y-110095238D01*
X192714285Y-110190476D01*
X192666666Y-110380952D01*
X192666666Y-110523810D01*
X192714285Y-110714286D01*
X192761904Y-110809524D01*
X192857142Y-110904762D01*
X193000000Y-110952381D01*
X193238095Y-110952381D01*
X194761904Y-113500000D02*
X194857142Y-113452381D01*
X194999999Y-113452381D01*
X195142857Y-113500000D01*
X195238095Y-113595238D01*
X195285714Y-113690476D01*
X195333333Y-113880952D01*
X195333333Y-114023810D01*
X195285714Y-114214286D01*
X195238095Y-114309524D01*
X195142857Y-114404762D01*
X194999999Y-114452381D01*
X194904761Y-114452381D01*
X194761904Y-114404762D01*
X194714285Y-114357143D01*
X194714285Y-114023810D01*
X194904761Y-114023810D01*
X194285714Y-114452381D02*
X194285714Y-113452381D01*
X193714285Y-114452381D01*
X193714285Y-113452381D01*
X193238095Y-114452381D02*
X193238095Y-113452381D01*
X193000000Y-113452381D01*
X192857142Y-113500000D01*
X192761904Y-113595238D01*
X192714285Y-113690476D01*
X192666666Y-113880952D01*
X192666666Y-114023810D01*
X192714285Y-114214286D01*
X192761904Y-114309524D01*
X192857142Y-114404762D01*
X193000000Y-114452381D01*
X193238095Y-114452381D01*
X195385714Y-118671429D02*
X194623809Y-118671429D01*
X195004761Y-119052381D02*
X195004761Y-118290476D01*
X193671428Y-118052381D02*
X194147619Y-118052381D01*
X194195238Y-118528571D01*
X194147619Y-118480952D01*
X194052381Y-118433333D01*
X193814285Y-118433333D01*
X193719047Y-118480952D01*
X193671428Y-118528571D01*
X193623809Y-118623810D01*
X193623809Y-118861905D01*
X193671428Y-118957143D01*
X193719047Y-119004762D01*
X193814285Y-119052381D01*
X194052381Y-119052381D01*
X194147619Y-119004762D01*
X194195238Y-118957143D01*
X193338095Y-118052381D02*
X193004762Y-119052381D01*
X192671428Y-118052381D01*
D12*
X136200000Y-93940000D02*
X135940000Y-93940000D01*
X135940000Y-93940000D02*
X135940000Y-96060000D01*
X135940000Y-96060000D02*
X136200000Y-96060000D01*
X155800000Y-93940000D02*
X156060000Y-93940000D01*
X156060000Y-93940000D02*
X156060000Y-96060000D01*
X156060000Y-96060000D02*
X155800000Y-96060000D01*
X135940000Y-96060000D02*
X138320000Y-96060000D01*
X136200000Y-93940000D02*
X136200000Y-91500000D01*
X139680000Y-96060000D02*
X142320000Y-96060000D01*
X143680000Y-96060000D02*
X146320000Y-96060000D01*
X147680000Y-96060000D02*
X150320000Y-96060000D01*
X151680000Y-96060000D02*
X154320000Y-96060000D01*
X137680000Y-93940000D02*
X140320000Y-93940000D01*
X141680000Y-93940000D02*
X144320000Y-93940000D01*
X145680000Y-93940000D02*
X148320000Y-93940000D01*
X149680000Y-93940000D02*
X152320000Y-93940000D01*
X153680000Y-93940000D02*
X156060000Y-93940000D01*
X183128249Y-70676777D02*
X183623223Y-71171751D01*
X184471751Y-70323223D02*
X183976777Y-69828249D01*
D13*
X183425000Y-79625000D02*
X182975000Y-79625000D01*
X183425000Y-72375000D02*
X182900000Y-72375000D01*
X176175000Y-72375000D02*
X176700000Y-72375000D01*
X176175000Y-79625000D02*
X176700000Y-79625000D01*
X183425000Y-79625000D02*
X183425000Y-79100000D01*
X176175000Y-79625000D02*
X176175000Y-79100000D01*
X176175000Y-72375000D02*
X176175000Y-72900000D01*
X183425000Y-72375000D02*
X183425000Y-72900000D01*
X182975000Y-79625000D02*
X182975000Y-81000000D01*
D12*
X178550000Y-61200000D02*
X177850000Y-61200000D01*
X177850000Y-62400000D02*
X178550000Y-62400000D01*
X178200000Y-86950000D02*
X178200000Y-86250000D01*
X177000000Y-86250000D02*
X177000000Y-86950000D01*
X183600000Y-87050000D02*
X183600000Y-86350000D01*
X182400000Y-86350000D02*
X182400000Y-87050000D01*
X187800000Y-79250000D02*
X187800000Y-78550000D01*
X186600000Y-78550000D02*
X186600000Y-79250000D01*
X185200000Y-78550000D02*
X185200000Y-79250000D01*
X186400000Y-79250000D02*
X186400000Y-78550000D01*
X185350000Y-81300000D02*
X184650000Y-81300000D01*
X184650000Y-82500000D02*
X185350000Y-82500000D01*
X174476777Y-72671751D02*
X174971751Y-72176777D01*
X174123223Y-71328249D02*
X173628249Y-71823223D01*
X177950000Y-83400000D02*
X177250000Y-83400000D01*
X177250000Y-84600000D02*
X177950000Y-84600000D01*
X177950000Y-82000000D02*
X177250000Y-82000000D01*
X177250000Y-83200000D02*
X177950000Y-83200000D01*
X171050000Y-113300000D02*
X171050000Y-112300000D01*
X172750000Y-112300000D02*
X172750000Y-113300000D01*
X170950000Y-104250000D02*
X170950000Y-103250000D01*
X172650000Y-103250000D02*
X172650000Y-104250000D01*
X177700000Y-113150000D02*
X177700000Y-112450000D01*
X176500000Y-112450000D02*
X176500000Y-113150000D01*
X177600000Y-104250000D02*
X177600000Y-103550000D01*
X176400000Y-103550000D02*
X176400000Y-104250000D01*
X182750000Y-116050000D02*
X181750000Y-116050000D01*
X181750000Y-114350000D02*
X182750000Y-114350000D01*
X182650000Y-107150000D02*
X181650000Y-107150000D01*
X181650000Y-105450000D02*
X182650000Y-105450000D01*
X185100000Y-107000000D02*
X184100000Y-107000000D01*
X184100000Y-107000000D02*
X184100000Y-104900000D01*
X185100000Y-107000000D02*
X185100000Y-104900000D01*
X185200000Y-115900000D02*
X184200000Y-115900000D01*
X184200000Y-115900000D02*
X184200000Y-113800000D01*
X185200000Y-115900000D02*
X185200000Y-113800000D01*
X189300000Y-97100000D02*
X188300000Y-97100000D01*
X188300000Y-97100000D02*
X188300000Y-95000000D01*
X189300000Y-97100000D02*
X189300000Y-95000000D01*
X185500000Y-97100000D02*
X184500000Y-97100000D01*
X184500000Y-97100000D02*
X184500000Y-95000000D01*
X185500000Y-97100000D02*
X185500000Y-95000000D01*
X187400000Y-97100000D02*
X186400000Y-97100000D01*
X186400000Y-97100000D02*
X186400000Y-95000000D01*
X187400000Y-97100000D02*
X187400000Y-95000000D01*
X175900000Y-108700000D02*
X175900000Y-110700000D01*
X175900000Y-110700000D02*
X172000000Y-110700000D01*
X175900000Y-108700000D02*
X172000000Y-108700000D01*
X175800000Y-99800000D02*
X175800000Y-101800000D01*
X175800000Y-101800000D02*
X171900000Y-101800000D01*
X175800000Y-99800000D02*
X171900000Y-99800000D01*
X176550000Y-116050000D02*
X176550000Y-114350000D01*
X176550000Y-114350000D02*
X179700000Y-114350000D01*
X176550000Y-116050000D02*
X179700000Y-116050000D01*
X176450000Y-107150000D02*
X176450000Y-105450000D01*
X176450000Y-105450000D02*
X179600000Y-105450000D01*
X176450000Y-107150000D02*
X179600000Y-107150000D01*
D13*
X183100000Y-110550000D02*
X183100000Y-111850000D01*
X178300000Y-111850000D02*
X178300000Y-110550000D01*
X183100000Y-101750000D02*
X183100000Y-103050000D01*
X178300000Y-103050000D02*
X178300000Y-101750000D01*
D12*
X185280000Y-103500000D02*
X185280000Y-102500000D01*
X183920000Y-102500000D02*
X183920000Y-103500000D01*
X185380000Y-112400000D02*
X185380000Y-111400000D01*
X184020000Y-111400000D02*
X184020000Y-112400000D01*
X188780000Y-91800000D02*
X188780000Y-90800000D01*
X187420000Y-90800000D02*
X187420000Y-91800000D01*
X185580000Y-91800000D02*
X185580000Y-90800000D01*
X184220000Y-90800000D02*
X184220000Y-91800000D01*
X187180000Y-91800000D02*
X187180000Y-90800000D01*
X185820000Y-90800000D02*
X185820000Y-91800000D01*
X177680000Y-68400000D02*
X177680000Y-67400000D01*
X176320000Y-67400000D02*
X176320000Y-68400000D01*
X174400000Y-69180000D02*
X175400000Y-69180000D01*
X175400000Y-67820000D02*
X174400000Y-67820000D01*
X174650000Y-116130000D02*
X175650000Y-116130000D01*
X175650000Y-114770000D02*
X174650000Y-114770000D01*
X172100000Y-116130000D02*
X173100000Y-116130000D01*
X173100000Y-114770000D02*
X172100000Y-114770000D01*
X174550000Y-107230000D02*
X175550000Y-107230000D01*
X175550000Y-105870000D02*
X174550000Y-105870000D01*
X172000000Y-107230000D02*
X173000000Y-107230000D01*
X173000000Y-105870000D02*
X172000000Y-105870000D01*
D13*
X180750000Y-57500000D02*
X178250000Y-57500000D01*
X180750000Y-60700000D02*
X178250000Y-60700000D01*
X177400000Y-58650000D02*
X177400000Y-59550000D01*
X181600000Y-58650000D02*
X181600000Y-59550000D01*
X179900000Y-58000000D02*
X179100000Y-58000000D01*
X179900000Y-60200000D02*
X179100000Y-60200000D01*
X178100000Y-59550000D02*
G75*
G02X178100000Y-58650000I1000000J450000D01*
G01*
X179100000Y-60201136D02*
G75*
G02X178250000Y-59800000I0J1101136D01*
G01*
X178100000Y-59550000D02*
G75*
G02X178100000Y-58650000I1000000J450000D01*
G01*
X178250877Y-58400722D02*
G75*
G02X179100000Y-58000000I849123J-699278D01*
G01*
X180749123Y-59799278D02*
G75*
G02X179900000Y-60200000I-849123J699278D01*
G01*
X180910652Y-58674462D02*
G75*
G02X180900000Y-59550000I-1010652J-425538D01*
G01*
X179900000Y-57998864D02*
G75*
G02X180750000Y-58400000I0J-1101136D01*
G01*
D12*
X182900000Y-118480000D02*
X182700000Y-118480000D01*
X185700000Y-122620000D02*
X185500000Y-122830000D01*
X184400000Y-122620000D02*
X184600000Y-122830000D01*
X185700000Y-121330000D02*
X185700000Y-122620000D01*
X185500000Y-122830000D02*
X184600000Y-122830000D01*
X184400000Y-122620000D02*
X184400000Y-121330000D01*
X187150000Y-121330000D02*
X181450000Y-121330000D01*
X185900000Y-118480000D02*
X184200000Y-118480000D01*
X187750000Y-119530000D02*
X187750000Y-120320000D01*
X180850000Y-120320000D02*
X180850000Y-119530000D01*
X172990000Y-113700000D02*
X172990000Y-111900000D01*
X176210000Y-111900000D02*
X176210000Y-114350000D01*
X172890000Y-104800000D02*
X172890000Y-103000000D01*
X176110000Y-103000000D02*
X176110000Y-105450000D01*
D13*
X181900000Y-85000000D02*
X178700000Y-85000000D01*
X178700000Y-88400000D02*
X181900000Y-88400000D01*
D12*
X145500000Y-72850000D02*
X144500000Y-72850000D01*
X144500000Y-71150000D02*
X145500000Y-71150000D01*
X145500000Y-108850000D02*
X144500000Y-108850000D01*
X144500000Y-107150000D02*
X145500000Y-107150000D01*
X136200000Y-57940000D02*
X135940000Y-57940000D01*
X135940000Y-57940000D02*
X135940000Y-60060000D01*
X135940000Y-60060000D02*
X136200000Y-60060000D01*
X155800000Y-57940000D02*
X156060000Y-57940000D01*
X156060000Y-57940000D02*
X156060000Y-60060000D01*
X156060000Y-60060000D02*
X155800000Y-60060000D01*
X135940000Y-60060000D02*
X138320000Y-60060000D01*
X136200000Y-57940000D02*
X136200000Y-55500000D01*
X139680000Y-60060000D02*
X142320000Y-60060000D01*
X143680000Y-60060000D02*
X146320000Y-60060000D01*
X147680000Y-60060000D02*
X150320000Y-60060000D01*
X151680000Y-60060000D02*
X154320000Y-60060000D01*
X137680000Y-57940000D02*
X140320000Y-57940000D01*
X141680000Y-57940000D02*
X144320000Y-57940000D01*
X145680000Y-57940000D02*
X148320000Y-57940000D01*
X149680000Y-57940000D02*
X152320000Y-57940000D01*
X153680000Y-57940000D02*
X156060000Y-57940000D01*
X147300000Y-64180000D02*
X148300000Y-64180000D01*
X148300000Y-62820000D02*
X147300000Y-62820000D01*
X151500000Y-64280000D02*
X152500000Y-64280000D01*
X152500000Y-62920000D02*
X151500000Y-62920000D01*
X128980000Y-64400000D02*
X128980000Y-63400000D01*
X127620000Y-63400000D02*
X127620000Y-64400000D01*
X143580000Y-66000000D02*
X143580000Y-65000000D01*
X142220000Y-65000000D02*
X142220000Y-66000000D01*
X126700000Y-63720000D02*
X125700000Y-63720000D01*
X125700000Y-65080000D02*
X126700000Y-65080000D01*
X141300000Y-65320000D02*
X140300000Y-65320000D01*
X140300000Y-66680000D02*
X141300000Y-66680000D01*
X129300000Y-80180000D02*
X130300000Y-80180000D01*
X130300000Y-78820000D02*
X129300000Y-78820000D01*
X142000000Y-77320000D02*
X141000000Y-77320000D01*
X141000000Y-78680000D02*
X142000000Y-78680000D01*
X132580000Y-80300000D02*
X132580000Y-79300000D01*
X131220000Y-79300000D02*
X131220000Y-80300000D01*
X140080000Y-79000000D02*
X140080000Y-78000000D01*
X138720000Y-78000000D02*
X138720000Y-79000000D01*
X147300000Y-100180000D02*
X148300000Y-100180000D01*
X148300000Y-98820000D02*
X147300000Y-98820000D01*
X151500000Y-100280000D02*
X152500000Y-100280000D01*
X152500000Y-98920000D02*
X151500000Y-98920000D01*
X124580000Y-100400000D02*
X124580000Y-99400000D01*
X123220000Y-99400000D02*
X123220000Y-100400000D01*
X137580000Y-102000000D02*
X137580000Y-101000000D01*
X136220000Y-101000000D02*
X136220000Y-102000000D01*
X122300000Y-99720000D02*
X121300000Y-99720000D01*
X121300000Y-101080000D02*
X122300000Y-101080000D01*
X135300000Y-101320000D02*
X134300000Y-101320000D01*
X134300000Y-102680000D02*
X135300000Y-102680000D01*
X129300000Y-116180000D02*
X130300000Y-116180000D01*
X130300000Y-114820000D02*
X129300000Y-114820000D01*
X136000000Y-113320000D02*
X135000000Y-113320000D01*
X135000000Y-114680000D02*
X136000000Y-114680000D01*
X132580000Y-116300000D02*
X132580000Y-115300000D01*
X131220000Y-115300000D02*
X131220000Y-116300000D01*
X134080000Y-115000000D02*
X134080000Y-114000000D01*
X132720000Y-114000000D02*
X132720000Y-115000000D01*
X137580000Y-66000000D02*
X137580000Y-65000000D01*
X136220000Y-65000000D02*
X136220000Y-66000000D01*
X124580000Y-64400000D02*
X124580000Y-63400000D01*
X123220000Y-63400000D02*
X123220000Y-64400000D01*
X135300000Y-65320000D02*
X134300000Y-65320000D01*
X134300000Y-66680000D02*
X135300000Y-66680000D01*
X122300000Y-63720000D02*
X121300000Y-63720000D01*
X121300000Y-65080000D02*
X122300000Y-65080000D01*
X136000000Y-77320000D02*
X135000000Y-77320000D01*
X135000000Y-78680000D02*
X136000000Y-78680000D01*
X123600000Y-80280000D02*
X124600000Y-80280000D01*
X124600000Y-78920000D02*
X123600000Y-78920000D01*
X134080000Y-79000000D02*
X134080000Y-78000000D01*
X132720000Y-78000000D02*
X132720000Y-79000000D01*
X126880000Y-80300000D02*
X126880000Y-79300000D01*
X125520000Y-79300000D02*
X125520000Y-80300000D01*
X143580000Y-102000000D02*
X143580000Y-101000000D01*
X142220000Y-101000000D02*
X142220000Y-102000000D01*
X128980000Y-100400000D02*
X128980000Y-99400000D01*
X127620000Y-99400000D02*
X127620000Y-100400000D01*
X141300000Y-101320000D02*
X140300000Y-101320000D01*
X140300000Y-102680000D02*
X141300000Y-102680000D01*
X126700000Y-99720000D02*
X125700000Y-99720000D01*
X125700000Y-101080000D02*
X126700000Y-101080000D01*
X141950000Y-113320000D02*
X140950000Y-113320000D01*
X140950000Y-114680000D02*
X141950000Y-114680000D01*
X123600000Y-116280000D02*
X124600000Y-116280000D01*
X124600000Y-114920000D02*
X123600000Y-114920000D01*
X140080000Y-115000000D02*
X140080000Y-114000000D01*
X138720000Y-114000000D02*
X138720000Y-115000000D01*
X126880000Y-116300000D02*
X126880000Y-115300000D01*
X125520000Y-115300000D02*
X125520000Y-116300000D01*
X126100000Y-57350000D02*
X126100000Y-58050000D01*
X127300000Y-58050000D02*
X127300000Y-57350000D01*
X126100000Y-93350000D02*
X126100000Y-94050000D01*
X127300000Y-94050000D02*
X127300000Y-93350000D01*
D13*
X185000000Y-58937500D02*
X185000000Y-59137500D01*
X186000000Y-58937500D02*
X186000000Y-59137500D01*
X187000000Y-58937500D02*
X187000000Y-59137500D01*
X188000000Y-58937500D02*
X188000000Y-59137500D01*
X189000000Y-58937500D02*
X189000000Y-59137500D01*
X184600000Y-60187500D02*
X184600000Y-59537500D01*
X189400000Y-60187500D02*
X184600000Y-60187500D01*
X189400000Y-59537500D02*
X189400000Y-60187500D01*
X184600000Y-58437500D02*
X184600000Y-58937500D01*
X189400000Y-58437500D02*
X184600000Y-58437500D01*
X189400000Y-58937500D02*
X189400000Y-58437500D01*
X183500000Y-60337500D02*
X184000000Y-60337500D01*
X183500000Y-60337500D02*
X183500000Y-60337500D01*
X184000000Y-60337500D02*
X183500000Y-60337500D01*
X184000000Y-60337500D02*
X184000000Y-60337500D01*
X184000000Y-60937500D02*
X184000000Y-60937500D01*
X184000000Y-59937500D02*
X184000000Y-60937500D01*
X184000000Y-59937500D02*
X184000000Y-59937500D01*
X184000000Y-60937500D02*
X184000000Y-59937500D01*
X183500000Y-60937500D02*
X184400000Y-60937500D01*
X183500000Y-59937500D02*
X183500000Y-60937500D01*
X190500000Y-60337500D02*
X190000000Y-60337500D01*
X190500000Y-60337500D02*
X190500000Y-60337500D01*
X190000000Y-60337500D02*
X190500000Y-60337500D01*
X190000000Y-60337500D02*
X190000000Y-60337500D01*
X190000000Y-60937500D02*
X190000000Y-60937500D01*
X190000000Y-59937500D02*
X190000000Y-60937500D01*
X190000000Y-59937500D02*
X190000000Y-59937500D01*
X190000000Y-60937500D02*
X190000000Y-59937500D01*
X190500000Y-60937500D02*
X189600000Y-60937500D01*
X190500000Y-59937500D02*
X190500000Y-60937500D01*
X189400000Y-58037500D02*
X184600000Y-58037500D01*
X190250000Y-61587500D02*
G75*
G03X190250000Y-61587500I-250000J0D01*
G01*
X171600000Y-74000000D02*
X172200000Y-73700000D01*
X172200000Y-73700000D02*
X172200000Y-74300000D01*
X172200000Y-74300000D02*
X171600000Y-74000000D01*
X167800000Y-68000000D02*
X167800000Y-75500000D01*
X171300000Y-68000000D02*
X167800000Y-68000000D01*
X171300000Y-75500000D02*
X171300000Y-68000000D01*
X171300000Y-75500000D02*
X167800000Y-75500000D01*
X134392381Y-94190477D02*
X135106667Y-94190477D01*
X135249524Y-94142857D01*
X135344762Y-94047619D01*
X135392381Y-93904762D01*
X135392381Y-93809524D01*
X134487619Y-94619048D02*
X134440000Y-94666667D01*
X134392381Y-94761905D01*
X134392381Y-95000001D01*
X134440000Y-95095239D01*
X134487619Y-95142858D01*
X134582857Y-95190477D01*
X134678095Y-95190477D01*
X134820952Y-95142858D01*
X135392381Y-94571429D01*
X135392381Y-95190477D01*
X134392381Y-95809524D02*
X134392381Y-95904763D01*
X134440000Y-96000001D01*
X134487619Y-96047620D01*
X134582857Y-96095239D01*
X134773333Y-96142858D01*
X135011429Y-96142858D01*
X135201905Y-96095239D01*
X135297143Y-96047620D01*
X135344762Y-96000001D01*
X135392381Y-95904763D01*
X135392381Y-95809524D01*
X135344762Y-95714286D01*
X135297143Y-95666667D01*
X135201905Y-95619048D01*
X135011429Y-95571429D01*
X134773333Y-95571429D01*
X134582857Y-95619048D01*
X134487619Y-95666667D01*
X134440000Y-95714286D01*
X134392381Y-95809524D01*
X182604652Y-71931049D02*
X182604652Y-71998392D01*
X182671996Y-72133079D01*
X182739339Y-72200423D01*
X182874027Y-72267767D01*
X183008714Y-72267767D01*
X183109729Y-72234095D01*
X183278087Y-72133080D01*
X183379103Y-72032064D01*
X183480118Y-71863705D01*
X183513790Y-71762690D01*
X183513790Y-71628003D01*
X183446446Y-71493316D01*
X183379103Y-71425972D01*
X183244416Y-71358629D01*
X183177072Y-71358629D01*
X183008714Y-71055584D02*
X182537309Y-70584179D01*
X182133248Y-71594332D01*
X185252381Y-75238095D02*
X186061905Y-75238095D01*
X186157143Y-75285714D01*
X186204762Y-75333333D01*
X186252381Y-75428571D01*
X186252381Y-75619048D01*
X186204762Y-75714286D01*
X186157143Y-75761905D01*
X186061905Y-75809524D01*
X185252381Y-75809524D01*
X186252381Y-76809524D02*
X186252381Y-76238095D01*
X186252381Y-76523809D02*
X185252381Y-76523809D01*
X185395238Y-76428571D01*
X185490476Y-76333333D01*
X185538095Y-76238095D01*
X178366666Y-60657143D02*
X178414285Y-60704762D01*
X178557142Y-60752381D01*
X178652380Y-60752381D01*
X178795238Y-60704762D01*
X178890476Y-60609524D01*
X178938095Y-60514286D01*
X178985714Y-60323810D01*
X178985714Y-60180952D01*
X178938095Y-59990476D01*
X178890476Y-59895238D01*
X178795238Y-59800000D01*
X178652380Y-59752381D01*
X178557142Y-59752381D01*
X178414285Y-59800000D01*
X178366666Y-59847619D01*
X177414285Y-60752381D02*
X177985714Y-60752381D01*
X177700000Y-60752381D02*
X177700000Y-59752381D01*
X177795238Y-59895238D01*
X177890476Y-59990476D01*
X177985714Y-60038095D01*
X177957143Y-88733334D02*
X178004762Y-88685715D01*
X178052381Y-88542858D01*
X178052381Y-88447620D01*
X178004762Y-88304762D01*
X177909524Y-88209524D01*
X177814286Y-88161905D01*
X177623810Y-88114286D01*
X177480952Y-88114286D01*
X177290476Y-88161905D01*
X177195238Y-88209524D01*
X177100000Y-88304762D01*
X177052381Y-88447620D01*
X177052381Y-88542858D01*
X177100000Y-88685715D01*
X177147619Y-88733334D01*
X177147619Y-89114286D02*
X177100000Y-89161905D01*
X177052381Y-89257143D01*
X177052381Y-89495239D01*
X177100000Y-89590477D01*
X177147619Y-89638096D01*
X177242857Y-89685715D01*
X177338095Y-89685715D01*
X177480952Y-89638096D01*
X178052381Y-89066667D01*
X178052381Y-89685715D01*
X183357143Y-88833334D02*
X183404762Y-88785715D01*
X183452381Y-88642858D01*
X183452381Y-88547620D01*
X183404762Y-88404762D01*
X183309524Y-88309524D01*
X183214286Y-88261905D01*
X183023810Y-88214286D01*
X182880952Y-88214286D01*
X182690476Y-88261905D01*
X182595238Y-88309524D01*
X182500000Y-88404762D01*
X182452381Y-88547620D01*
X182452381Y-88642858D01*
X182500000Y-88785715D01*
X182547619Y-88833334D01*
X182452381Y-89166667D02*
X182452381Y-89785715D01*
X182833333Y-89452381D01*
X182833333Y-89595239D01*
X182880952Y-89690477D01*
X182928571Y-89738096D01*
X183023810Y-89785715D01*
X183261905Y-89785715D01*
X183357143Y-89738096D01*
X183404762Y-89690477D01*
X183452381Y-89595239D01*
X183452381Y-89309524D01*
X183404762Y-89214286D01*
X183357143Y-89166667D01*
X189057143Y-78733334D02*
X189104762Y-78685715D01*
X189152381Y-78542858D01*
X189152381Y-78447620D01*
X189104762Y-78304762D01*
X189009524Y-78209524D01*
X188914286Y-78161905D01*
X188723810Y-78114286D01*
X188580952Y-78114286D01*
X188390476Y-78161905D01*
X188295238Y-78209524D01*
X188200000Y-78304762D01*
X188152381Y-78447620D01*
X188152381Y-78542858D01*
X188200000Y-78685715D01*
X188247619Y-78733334D01*
X188485714Y-79590477D02*
X189152381Y-79590477D01*
X188104762Y-79352381D02*
X188819048Y-79114286D01*
X188819048Y-79733334D01*
X184857143Y-79933334D02*
X184904762Y-79885715D01*
X184952381Y-79742858D01*
X184952381Y-79647620D01*
X184904762Y-79504762D01*
X184809524Y-79409524D01*
X184714286Y-79361905D01*
X184523810Y-79314286D01*
X184380952Y-79314286D01*
X184190476Y-79361905D01*
X184095238Y-79409524D01*
X184000000Y-79504762D01*
X183952381Y-79647620D01*
X183952381Y-79742858D01*
X184000000Y-79885715D01*
X184047619Y-79933334D01*
X183952381Y-80838096D02*
X183952381Y-80361905D01*
X184428571Y-80314286D01*
X184380952Y-80361905D01*
X184333333Y-80457143D01*
X184333333Y-80695239D01*
X184380952Y-80790477D01*
X184428571Y-80838096D01*
X184523810Y-80885715D01*
X184761905Y-80885715D01*
X184857143Y-80838096D01*
X184904762Y-80790477D01*
X184952381Y-80695239D01*
X184952381Y-80457143D01*
X184904762Y-80361905D01*
X184857143Y-80314286D01*
X185166666Y-83657143D02*
X185214285Y-83704762D01*
X185357142Y-83752381D01*
X185452380Y-83752381D01*
X185595238Y-83704762D01*
X185690476Y-83609524D01*
X185738095Y-83514286D01*
X185785714Y-83323810D01*
X185785714Y-83180952D01*
X185738095Y-82990476D01*
X185690476Y-82895238D01*
X185595238Y-82800000D01*
X185452380Y-82752381D01*
X185357142Y-82752381D01*
X185214285Y-82800000D01*
X185166666Y-82847619D01*
X184309523Y-82752381D02*
X184500000Y-82752381D01*
X184595238Y-82800000D01*
X184642857Y-82847619D01*
X184738095Y-82990476D01*
X184785714Y-83180952D01*
X184785714Y-83561905D01*
X184738095Y-83657143D01*
X184690476Y-83704762D01*
X184595238Y-83752381D01*
X184404761Y-83752381D01*
X184309523Y-83704762D01*
X184261904Y-83657143D01*
X184214285Y-83561905D01*
X184214285Y-83323810D01*
X184261904Y-83228571D01*
X184309523Y-83180952D01*
X184404761Y-83133333D01*
X184595238Y-83133333D01*
X184690476Y-83180952D01*
X184738095Y-83228571D01*
X184785714Y-83323810D01*
X175731049Y-73195348D02*
X175798392Y-73195348D01*
X175933079Y-73128004D01*
X176000423Y-73060661D01*
X176067767Y-72925973D01*
X176067767Y-72791286D01*
X176034095Y-72690271D01*
X175933080Y-72521913D01*
X175832064Y-72420897D01*
X175663705Y-72319882D01*
X175562690Y-72286210D01*
X175428003Y-72286210D01*
X175293316Y-72353554D01*
X175225972Y-72420897D01*
X175158629Y-72555584D01*
X175158629Y-72622928D01*
X174990270Y-73262690D02*
X175023942Y-73161675D01*
X175023942Y-73094332D01*
X174990270Y-72993317D01*
X174956599Y-72959645D01*
X174855584Y-72925973D01*
X174788240Y-72925973D01*
X174687225Y-72959645D01*
X174552537Y-73094332D01*
X174518866Y-73195348D01*
X174518866Y-73262691D01*
X174552537Y-73363706D01*
X174586209Y-73397378D01*
X174687224Y-73431050D01*
X174754568Y-73431050D01*
X174855583Y-73397378D01*
X174990270Y-73262690D01*
X175091286Y-73229019D01*
X175158629Y-73229019D01*
X175259645Y-73262691D01*
X175394332Y-73397378D01*
X175428003Y-73498393D01*
X175428003Y-73565736D01*
X175394332Y-73666752D01*
X175259644Y-73801439D01*
X175158629Y-73835111D01*
X175091286Y-73835111D01*
X174990270Y-73801439D01*
X174855584Y-73666752D01*
X174821911Y-73565736D01*
X174821911Y-73498393D01*
X174855583Y-73397378D01*
X180066666Y-84357143D02*
X180114285Y-84404762D01*
X180257142Y-84452381D01*
X180352380Y-84452381D01*
X180495238Y-84404762D01*
X180590476Y-84309524D01*
X180638095Y-84214286D01*
X180685714Y-84023810D01*
X180685714Y-83880952D01*
X180638095Y-83690476D01*
X180590476Y-83595238D01*
X180495238Y-83500000D01*
X180352380Y-83452381D01*
X180257142Y-83452381D01*
X180114285Y-83500000D01*
X180066666Y-83547619D01*
X179590476Y-84452381D02*
X179400000Y-84452381D01*
X179304761Y-84404762D01*
X179257142Y-84357143D01*
X179161904Y-84214286D01*
X179114285Y-84023810D01*
X179114285Y-83642857D01*
X179161904Y-83547619D01*
X179209523Y-83500000D01*
X179304761Y-83452381D01*
X179495238Y-83452381D01*
X179590476Y-83500000D01*
X179638095Y-83547619D01*
X179685714Y-83642857D01*
X179685714Y-83880952D01*
X179638095Y-83976190D01*
X179590476Y-84023810D01*
X179495238Y-84071429D01*
X179304761Y-84071429D01*
X179209523Y-84023810D01*
X179161904Y-83976190D01*
X179114285Y-83880952D01*
X181042857Y-82957143D02*
X181090476Y-83004762D01*
X181233333Y-83052381D01*
X181328571Y-83052381D01*
X181471429Y-83004762D01*
X181566667Y-82909524D01*
X181614286Y-82814286D01*
X181661905Y-82623810D01*
X181661905Y-82480952D01*
X181614286Y-82290476D01*
X181566667Y-82195238D01*
X181471429Y-82100000D01*
X181328571Y-82052381D01*
X181233333Y-82052381D01*
X181090476Y-82100000D01*
X181042857Y-82147619D01*
X180090476Y-83052381D02*
X180661905Y-83052381D01*
X180376191Y-83052381D02*
X180376191Y-82052381D01*
X180471429Y-82195238D01*
X180566667Y-82290476D01*
X180661905Y-82338095D01*
X179471429Y-82052381D02*
X179376190Y-82052381D01*
X179280952Y-82100000D01*
X179233333Y-82147619D01*
X179185714Y-82242857D01*
X179138095Y-82433333D01*
X179138095Y-82671429D01*
X179185714Y-82861905D01*
X179233333Y-82957143D01*
X179280952Y-83004762D01*
X179376190Y-83052381D01*
X179471429Y-83052381D01*
X179566667Y-83004762D01*
X179614286Y-82957143D01*
X179661905Y-82861905D01*
X179709524Y-82671429D01*
X179709524Y-82433333D01*
X179661905Y-82242857D01*
X179614286Y-82147619D01*
X179566667Y-82100000D01*
X179471429Y-82052381D01*
X169457143Y-112357143D02*
X169504762Y-112309524D01*
X169552381Y-112166667D01*
X169552381Y-112071429D01*
X169504762Y-111928571D01*
X169409524Y-111833333D01*
X169314286Y-111785714D01*
X169123810Y-111738095D01*
X168980952Y-111738095D01*
X168790476Y-111785714D01*
X168695238Y-111833333D01*
X168600000Y-111928571D01*
X168552381Y-112071429D01*
X168552381Y-112166667D01*
X168600000Y-112309524D01*
X168647619Y-112357143D01*
X169552381Y-113309524D02*
X169552381Y-112738095D01*
X169552381Y-113023809D02*
X168552381Y-113023809D01*
X168695238Y-112928571D01*
X168790476Y-112833333D01*
X168838095Y-112738095D01*
X169552381Y-114261905D02*
X169552381Y-113690476D01*
X169552381Y-113976190D02*
X168552381Y-113976190D01*
X168695238Y-113880952D01*
X168790476Y-113785714D01*
X168838095Y-113690476D01*
X169357143Y-103357143D02*
X169404762Y-103309524D01*
X169452381Y-103166667D01*
X169452381Y-103071429D01*
X169404762Y-102928571D01*
X169309524Y-102833333D01*
X169214286Y-102785714D01*
X169023810Y-102738095D01*
X168880952Y-102738095D01*
X168690476Y-102785714D01*
X168595238Y-102833333D01*
X168500000Y-102928571D01*
X168452381Y-103071429D01*
X168452381Y-103166667D01*
X168500000Y-103309524D01*
X168547619Y-103357143D01*
X169452381Y-104309524D02*
X169452381Y-103738095D01*
X169452381Y-104023809D02*
X168452381Y-104023809D01*
X168595238Y-103928571D01*
X168690476Y-103833333D01*
X168738095Y-103738095D01*
X168547619Y-104690476D02*
X168500000Y-104738095D01*
X168452381Y-104833333D01*
X168452381Y-105071429D01*
X168500000Y-105166667D01*
X168547619Y-105214286D01*
X168642857Y-105261905D01*
X168738095Y-105261905D01*
X168880952Y-105214286D01*
X169452381Y-104642857D01*
X169452381Y-105261905D01*
X177457143Y-109557143D02*
X177504762Y-109509524D01*
X177552381Y-109366667D01*
X177552381Y-109271429D01*
X177504762Y-109128571D01*
X177409524Y-109033333D01*
X177314286Y-108985714D01*
X177123810Y-108938095D01*
X176980952Y-108938095D01*
X176790476Y-108985714D01*
X176695238Y-109033333D01*
X176600000Y-109128571D01*
X176552381Y-109271429D01*
X176552381Y-109366667D01*
X176600000Y-109509524D01*
X176647619Y-109557143D01*
X177552381Y-110509524D02*
X177552381Y-109938095D01*
X177552381Y-110223809D02*
X176552381Y-110223809D01*
X176695238Y-110128571D01*
X176790476Y-110033333D01*
X176838095Y-109938095D01*
X176552381Y-110842857D02*
X176552381Y-111461905D01*
X176933333Y-111128571D01*
X176933333Y-111271429D01*
X176980952Y-111366667D01*
X177028571Y-111414286D01*
X177123810Y-111461905D01*
X177361905Y-111461905D01*
X177457143Y-111414286D01*
X177504762Y-111366667D01*
X177552381Y-111271429D01*
X177552381Y-110985714D01*
X177504762Y-110890476D01*
X177457143Y-110842857D01*
X177357143Y-100357143D02*
X177404762Y-100309524D01*
X177452381Y-100166667D01*
X177452381Y-100071429D01*
X177404762Y-99928571D01*
X177309524Y-99833333D01*
X177214286Y-99785714D01*
X177023810Y-99738095D01*
X176880952Y-99738095D01*
X176690476Y-99785714D01*
X176595238Y-99833333D01*
X176500000Y-99928571D01*
X176452381Y-100071429D01*
X176452381Y-100166667D01*
X176500000Y-100309524D01*
X176547619Y-100357143D01*
X177452381Y-101309524D02*
X177452381Y-100738095D01*
X177452381Y-101023809D02*
X176452381Y-101023809D01*
X176595238Y-100928571D01*
X176690476Y-100833333D01*
X176738095Y-100738095D01*
X176785714Y-102166667D02*
X177452381Y-102166667D01*
X176404762Y-101928571D02*
X177119048Y-101690476D01*
X177119048Y-102309524D01*
X182942857Y-117157143D02*
X182990476Y-117204762D01*
X183133333Y-117252381D01*
X183228571Y-117252381D01*
X183371429Y-117204762D01*
X183466667Y-117109524D01*
X183514286Y-117014286D01*
X183561905Y-116823810D01*
X183561905Y-116680952D01*
X183514286Y-116490476D01*
X183466667Y-116395238D01*
X183371429Y-116300000D01*
X183228571Y-116252381D01*
X183133333Y-116252381D01*
X182990476Y-116300000D01*
X182942857Y-116347619D01*
X181990476Y-117252381D02*
X182561905Y-117252381D01*
X182276191Y-117252381D02*
X182276191Y-116252381D01*
X182371429Y-116395238D01*
X182466667Y-116490476D01*
X182561905Y-116538095D01*
X181085714Y-116252381D02*
X181561905Y-116252381D01*
X181609524Y-116728571D01*
X181561905Y-116680952D01*
X181466667Y-116633333D01*
X181228571Y-116633333D01*
X181133333Y-116680952D01*
X181085714Y-116728571D01*
X181038095Y-116823810D01*
X181038095Y-117061905D01*
X181085714Y-117157143D01*
X181133333Y-117204762D01*
X181228571Y-117252381D01*
X181466667Y-117252381D01*
X181561905Y-117204762D01*
X181609524Y-117157143D01*
X186257143Y-106057143D02*
X186304762Y-106009524D01*
X186352381Y-105866667D01*
X186352381Y-105771429D01*
X186304762Y-105628571D01*
X186209524Y-105533333D01*
X186114286Y-105485714D01*
X185923810Y-105438095D01*
X185780952Y-105438095D01*
X185590476Y-105485714D01*
X185495238Y-105533333D01*
X185400000Y-105628571D01*
X185352381Y-105771429D01*
X185352381Y-105866667D01*
X185400000Y-106009524D01*
X185447619Y-106057143D01*
X186352381Y-107009524D02*
X186352381Y-106438095D01*
X186352381Y-106723809D02*
X185352381Y-106723809D01*
X185495238Y-106628571D01*
X185590476Y-106533333D01*
X185638095Y-106438095D01*
X185352381Y-107866667D02*
X185352381Y-107676190D01*
X185400000Y-107580952D01*
X185447619Y-107533333D01*
X185590476Y-107438095D01*
X185780952Y-107390476D01*
X186161905Y-107390476D01*
X186257143Y-107438095D01*
X186304762Y-107485714D01*
X186352381Y-107580952D01*
X186352381Y-107771429D01*
X186304762Y-107866667D01*
X186257143Y-107914286D01*
X186161905Y-107961905D01*
X185923810Y-107961905D01*
X185828571Y-107914286D01*
X185780952Y-107866667D01*
X185733333Y-107771429D01*
X185733333Y-107580952D01*
X185780952Y-107485714D01*
X185828571Y-107438095D01*
X185923810Y-107390476D01*
X186352381Y-103261905D02*
X185352381Y-103261905D01*
X185352381Y-103500000D01*
X185400000Y-103642858D01*
X185495238Y-103738096D01*
X185590476Y-103785715D01*
X185780952Y-103833334D01*
X185923810Y-103833334D01*
X186114286Y-103785715D01*
X186209524Y-103738096D01*
X186304762Y-103642858D01*
X186352381Y-103500000D01*
X186352381Y-103261905D01*
X186352381Y-104785715D02*
X186352381Y-104214286D01*
X186352381Y-104500000D02*
X185352381Y-104500000D01*
X185495238Y-104404762D01*
X185590476Y-104309524D01*
X185638095Y-104214286D01*
X186402381Y-113861905D02*
X185402381Y-113861905D01*
X185402381Y-114100000D01*
X185450000Y-114242858D01*
X185545238Y-114338096D01*
X185640476Y-114385715D01*
X185830952Y-114433334D01*
X185973810Y-114433334D01*
X186164286Y-114385715D01*
X186259524Y-114338096D01*
X186354762Y-114242858D01*
X186402381Y-114100000D01*
X186402381Y-113861905D01*
X185497619Y-114814286D02*
X185450000Y-114861905D01*
X185402381Y-114957143D01*
X185402381Y-115195239D01*
X185450000Y-115290477D01*
X185497619Y-115338096D01*
X185592857Y-115385715D01*
X185688095Y-115385715D01*
X185830952Y-115338096D01*
X186402381Y-114766667D01*
X186402381Y-115385715D01*
X190502381Y-95061905D02*
X189502381Y-95061905D01*
X189502381Y-95300000D01*
X189550000Y-95442858D01*
X189645238Y-95538096D01*
X189740476Y-95585715D01*
X189930952Y-95633334D01*
X190073810Y-95633334D01*
X190264286Y-95585715D01*
X190359524Y-95538096D01*
X190454762Y-95442858D01*
X190502381Y-95300000D01*
X190502381Y-95061905D01*
X189502381Y-95966667D02*
X189502381Y-96585715D01*
X189883333Y-96252381D01*
X189883333Y-96395239D01*
X189930952Y-96490477D01*
X189978571Y-96538096D01*
X190073810Y-96585715D01*
X190311905Y-96585715D01*
X190407143Y-96538096D01*
X190454762Y-96490477D01*
X190502381Y-96395239D01*
X190502381Y-96109524D01*
X190454762Y-96014286D01*
X190407143Y-95966667D01*
X186702381Y-95061905D02*
X185702381Y-95061905D01*
X185702381Y-95300000D01*
X185750000Y-95442858D01*
X185845238Y-95538096D01*
X185940476Y-95585715D01*
X186130952Y-95633334D01*
X186273810Y-95633334D01*
X186464286Y-95585715D01*
X186559524Y-95538096D01*
X186654762Y-95442858D01*
X186702381Y-95300000D01*
X186702381Y-95061905D01*
X186035714Y-96490477D02*
X186702381Y-96490477D01*
X185654762Y-96252381D02*
X186369048Y-96014286D01*
X186369048Y-96633334D01*
X188602381Y-95061905D02*
X187602381Y-95061905D01*
X187602381Y-95300000D01*
X187650000Y-95442858D01*
X187745238Y-95538096D01*
X187840476Y-95585715D01*
X188030952Y-95633334D01*
X188173810Y-95633334D01*
X188364286Y-95585715D01*
X188459524Y-95538096D01*
X188554762Y-95442858D01*
X188602381Y-95300000D01*
X188602381Y-95061905D01*
X187602381Y-96538096D02*
X187602381Y-96061905D01*
X188078571Y-96014286D01*
X188030952Y-96061905D01*
X187983333Y-96157143D01*
X187983333Y-96395239D01*
X188030952Y-96490477D01*
X188078571Y-96538096D01*
X188173810Y-96585715D01*
X188411905Y-96585715D01*
X188507143Y-96538096D01*
X188554762Y-96490477D01*
X188602381Y-96395239D01*
X188602381Y-96157143D01*
X188554762Y-96061905D01*
X188507143Y-96014286D01*
X171138095Y-110152381D02*
X171138095Y-109152381D01*
X170900000Y-109152381D01*
X170757142Y-109200000D01*
X170661904Y-109295238D01*
X170614285Y-109390476D01*
X170566666Y-109580952D01*
X170566666Y-109723810D01*
X170614285Y-109914286D01*
X170661904Y-110009524D01*
X170757142Y-110104762D01*
X170900000Y-110152381D01*
X171138095Y-110152381D01*
X169709523Y-109152381D02*
X169900000Y-109152381D01*
X169995238Y-109200000D01*
X170042857Y-109247619D01*
X170138095Y-109390476D01*
X170185714Y-109580952D01*
X170185714Y-109961905D01*
X170138095Y-110057143D01*
X170090476Y-110104762D01*
X169995238Y-110152381D01*
X169804761Y-110152381D01*
X169709523Y-110104762D01*
X169661904Y-110057143D01*
X169614285Y-109961905D01*
X169614285Y-109723810D01*
X169661904Y-109628571D01*
X169709523Y-109580952D01*
X169804761Y-109533333D01*
X169995238Y-109533333D01*
X170090476Y-109580952D01*
X170138095Y-109628571D01*
X170185714Y-109723810D01*
X171038095Y-101252381D02*
X171038095Y-100252381D01*
X170800000Y-100252381D01*
X170657142Y-100300000D01*
X170561904Y-100395238D01*
X170514285Y-100490476D01*
X170466666Y-100680952D01*
X170466666Y-100823810D01*
X170514285Y-101014286D01*
X170561904Y-101109524D01*
X170657142Y-101204762D01*
X170800000Y-101252381D01*
X171038095Y-101252381D01*
X170133333Y-100252381D02*
X169466666Y-100252381D01*
X169895238Y-101252381D01*
X178538095Y-117252381D02*
X178538095Y-116252381D01*
X178300000Y-116252381D01*
X178157142Y-116300000D01*
X178061904Y-116395238D01*
X178014285Y-116490476D01*
X177966666Y-116680952D01*
X177966666Y-116823810D01*
X178014285Y-117014286D01*
X178061904Y-117109524D01*
X178157142Y-117204762D01*
X178300000Y-117252381D01*
X178538095Y-117252381D01*
X177395238Y-116680952D02*
X177490476Y-116633333D01*
X177538095Y-116585714D01*
X177585714Y-116490476D01*
X177585714Y-116442857D01*
X177538095Y-116347619D01*
X177490476Y-116300000D01*
X177395238Y-116252381D01*
X177204761Y-116252381D01*
X177109523Y-116300000D01*
X177061904Y-116347619D01*
X177014285Y-116442857D01*
X177014285Y-116490476D01*
X177061904Y-116585714D01*
X177109523Y-116633333D01*
X177204761Y-116680952D01*
X177395238Y-116680952D01*
X177490476Y-116728571D01*
X177538095Y-116776190D01*
X177585714Y-116871429D01*
X177585714Y-117061905D01*
X177538095Y-117157143D01*
X177490476Y-117204762D01*
X177395238Y-117252381D01*
X177204761Y-117252381D01*
X177109523Y-117204762D01*
X177061904Y-117157143D01*
X177014285Y-117061905D01*
X177014285Y-116871429D01*
X177061904Y-116776190D01*
X177109523Y-116728571D01*
X177204761Y-116680952D01*
X177738095Y-108152381D02*
X177738095Y-107152381D01*
X177500000Y-107152381D01*
X177357142Y-107200000D01*
X177261904Y-107295238D01*
X177214285Y-107390476D01*
X177166666Y-107580952D01*
X177166666Y-107723810D01*
X177214285Y-107914286D01*
X177261904Y-108009524D01*
X177357142Y-108104762D01*
X177500000Y-108152381D01*
X177738095Y-108152381D01*
X176690476Y-108152381D02*
X176500000Y-108152381D01*
X176404761Y-108104762D01*
X176357142Y-108057143D01*
X176261904Y-107914286D01*
X176214285Y-107723810D01*
X176214285Y-107342857D01*
X176261904Y-107247619D01*
X176309523Y-107200000D01*
X176404761Y-107152381D01*
X176595238Y-107152381D01*
X176690476Y-107200000D01*
X176738095Y-107247619D01*
X176785714Y-107342857D01*
X176785714Y-107580952D01*
X176738095Y-107676190D01*
X176690476Y-107723810D01*
X176595238Y-107771429D01*
X176404761Y-107771429D01*
X176309523Y-107723810D01*
X176261904Y-107676190D01*
X176214285Y-107580952D01*
X191467606Y-70751141D02*
X191943797Y-70751141D01*
X191943797Y-69751141D01*
X190610463Y-70751141D02*
X191181892Y-70751141D01*
X190896178Y-70751141D02*
X190896178Y-69751141D01*
X190991416Y-69893998D01*
X191086654Y-69989236D01*
X191181892Y-70036855D01*
X175352381Y-85233334D02*
X175352381Y-84757143D01*
X174352381Y-84757143D01*
X174447619Y-85519048D02*
X174400000Y-85566667D01*
X174352381Y-85661905D01*
X174352381Y-85900001D01*
X174400000Y-85995239D01*
X174447619Y-86042858D01*
X174542857Y-86090477D01*
X174638095Y-86090477D01*
X174780952Y-86042858D01*
X175352381Y-85471429D01*
X175352381Y-86090477D01*
X184466666Y-109352381D02*
X184942857Y-109352381D01*
X184942857Y-108352381D01*
X184228571Y-108352381D02*
X183609523Y-108352381D01*
X183942857Y-108733333D01*
X183799999Y-108733333D01*
X183704761Y-108780952D01*
X183657142Y-108828571D01*
X183609523Y-108923810D01*
X183609523Y-109161905D01*
X183657142Y-109257143D01*
X183704761Y-109304762D01*
X183799999Y-109352381D01*
X184085714Y-109352381D01*
X184180952Y-109304762D01*
X184228571Y-109257143D01*
X184566666Y-99852381D02*
X185042857Y-99852381D01*
X185042857Y-98852381D01*
X183804761Y-99185714D02*
X183804761Y-99852381D01*
X184042857Y-98804762D02*
X184280952Y-99519048D01*
X183661904Y-99519048D01*
X185052381Y-100733334D02*
X184576190Y-100400000D01*
X185052381Y-100161905D02*
X184052381Y-100161905D01*
X184052381Y-100542858D01*
X184100000Y-100638096D01*
X184147619Y-100685715D01*
X184242857Y-100733334D01*
X184385714Y-100733334D01*
X184480952Y-100685715D01*
X184528571Y-100638096D01*
X184576190Y-100542858D01*
X184576190Y-100161905D01*
X185052381Y-101685715D02*
X185052381Y-101114286D01*
X185052381Y-101400000D02*
X184052381Y-101400000D01*
X184195238Y-101304762D01*
X184290476Y-101209524D01*
X184338095Y-101114286D01*
X186552381Y-111733334D02*
X186076190Y-111400000D01*
X186552381Y-111161905D02*
X185552381Y-111161905D01*
X185552381Y-111542858D01*
X185600000Y-111638096D01*
X185647619Y-111685715D01*
X185742857Y-111733334D01*
X185885714Y-111733334D01*
X185980952Y-111685715D01*
X186028571Y-111638096D01*
X186076190Y-111542858D01*
X186076190Y-111161905D01*
X185647619Y-112114286D02*
X185600000Y-112161905D01*
X185552381Y-112257143D01*
X185552381Y-112495239D01*
X185600000Y-112590477D01*
X185647619Y-112638096D01*
X185742857Y-112685715D01*
X185838095Y-112685715D01*
X185980952Y-112638096D01*
X186552381Y-112066667D01*
X186552381Y-112685715D01*
X188552381Y-88933334D02*
X188076190Y-88600000D01*
X188552381Y-88361905D02*
X187552381Y-88361905D01*
X187552381Y-88742858D01*
X187600000Y-88838096D01*
X187647619Y-88885715D01*
X187742857Y-88933334D01*
X187885714Y-88933334D01*
X187980952Y-88885715D01*
X188028571Y-88838096D01*
X188076190Y-88742858D01*
X188076190Y-88361905D01*
X187552381Y-89266667D02*
X187552381Y-89933334D01*
X188552381Y-89504762D01*
X185352381Y-88933334D02*
X184876190Y-88600000D01*
X185352381Y-88361905D02*
X184352381Y-88361905D01*
X184352381Y-88742858D01*
X184400000Y-88838096D01*
X184447619Y-88885715D01*
X184542857Y-88933334D01*
X184685714Y-88933334D01*
X184780952Y-88885715D01*
X184828571Y-88838096D01*
X184876190Y-88742858D01*
X184876190Y-88361905D01*
X184780952Y-89504762D02*
X184733333Y-89409524D01*
X184685714Y-89361905D01*
X184590476Y-89314286D01*
X184542857Y-89314286D01*
X184447619Y-89361905D01*
X184400000Y-89409524D01*
X184352381Y-89504762D01*
X184352381Y-89695239D01*
X184400000Y-89790477D01*
X184447619Y-89838096D01*
X184542857Y-89885715D01*
X184590476Y-89885715D01*
X184685714Y-89838096D01*
X184733333Y-89790477D01*
X184780952Y-89695239D01*
X184780952Y-89504762D01*
X184828571Y-89409524D01*
X184876190Y-89361905D01*
X184971429Y-89314286D01*
X185161905Y-89314286D01*
X185257143Y-89361905D01*
X185304762Y-89409524D01*
X185352381Y-89504762D01*
X185352381Y-89695239D01*
X185304762Y-89790477D01*
X185257143Y-89838096D01*
X185161905Y-89885715D01*
X184971429Y-89885715D01*
X184876190Y-89838096D01*
X184828571Y-89790477D01*
X184780952Y-89695239D01*
X186952381Y-88933334D02*
X186476190Y-88600000D01*
X186952381Y-88361905D02*
X185952381Y-88361905D01*
X185952381Y-88742858D01*
X186000000Y-88838096D01*
X186047619Y-88885715D01*
X186142857Y-88933334D01*
X186285714Y-88933334D01*
X186380952Y-88885715D01*
X186428571Y-88838096D01*
X186476190Y-88742858D01*
X186476190Y-88361905D01*
X186952381Y-89409524D02*
X186952381Y-89600000D01*
X186904762Y-89695239D01*
X186857143Y-89742858D01*
X186714286Y-89838096D01*
X186523810Y-89885715D01*
X186142857Y-89885715D01*
X186047619Y-89838096D01*
X186000000Y-89790477D01*
X185952381Y-89695239D01*
X185952381Y-89504762D01*
X186000000Y-89409524D01*
X186047619Y-89361905D01*
X186142857Y-89314286D01*
X186380952Y-89314286D01*
X186476190Y-89361905D01*
X186523810Y-89409524D01*
X186571429Y-89504762D01*
X186571429Y-89695239D01*
X186523810Y-89790477D01*
X186476190Y-89838096D01*
X186380952Y-89885715D01*
X178852381Y-67257143D02*
X178376190Y-66923809D01*
X178852381Y-66685714D02*
X177852381Y-66685714D01*
X177852381Y-67066667D01*
X177900000Y-67161905D01*
X177947619Y-67209524D01*
X178042857Y-67257143D01*
X178185714Y-67257143D01*
X178280952Y-67209524D01*
X178328571Y-67161905D01*
X178376190Y-67066667D01*
X178376190Y-66685714D01*
X178852381Y-68209524D02*
X178852381Y-67638095D01*
X178852381Y-67923809D02*
X177852381Y-67923809D01*
X177995238Y-67828571D01*
X178090476Y-67733333D01*
X178138095Y-67638095D01*
X177852381Y-68828571D02*
X177852381Y-68923810D01*
X177900000Y-69019048D01*
X177947619Y-69066667D01*
X178042857Y-69114286D01*
X178233333Y-69161905D01*
X178471429Y-69161905D01*
X178661905Y-69114286D01*
X178757143Y-69066667D01*
X178804762Y-69019048D01*
X178852381Y-68923810D01*
X178852381Y-68828571D01*
X178804762Y-68733333D01*
X178757143Y-68685714D01*
X178661905Y-68638095D01*
X178471429Y-68590476D01*
X178233333Y-68590476D01*
X178042857Y-68638095D01*
X177947619Y-68685714D01*
X177900000Y-68733333D01*
X177852381Y-68828571D01*
X175542857Y-67502381D02*
X175876191Y-67026190D01*
X176114286Y-67502381D02*
X176114286Y-66502381D01*
X175733333Y-66502381D01*
X175638095Y-66550000D01*
X175590476Y-66597619D01*
X175542857Y-66692857D01*
X175542857Y-66835714D01*
X175590476Y-66930952D01*
X175638095Y-66978571D01*
X175733333Y-67026190D01*
X176114286Y-67026190D01*
X174590476Y-67502381D02*
X175161905Y-67502381D01*
X174876191Y-67502381D02*
X174876191Y-66502381D01*
X174971429Y-66645238D01*
X175066667Y-66740476D01*
X175161905Y-66788095D01*
X173638095Y-67502381D02*
X174209524Y-67502381D01*
X173923810Y-67502381D02*
X173923810Y-66502381D01*
X174019048Y-66645238D01*
X174114286Y-66740476D01*
X174209524Y-66788095D01*
X170642857Y-115852381D02*
X170976191Y-115376190D01*
X171214286Y-115852381D02*
X171214286Y-114852381D01*
X170833333Y-114852381D01*
X170738095Y-114900000D01*
X170690476Y-114947619D01*
X170642857Y-115042857D01*
X170642857Y-115185714D01*
X170690476Y-115280952D01*
X170738095Y-115328571D01*
X170833333Y-115376190D01*
X171214286Y-115376190D01*
X169690476Y-115852381D02*
X170261905Y-115852381D01*
X169976191Y-115852381D02*
X169976191Y-114852381D01*
X170071429Y-114995238D01*
X170166667Y-115090476D01*
X170261905Y-115138095D01*
X168785714Y-114852381D02*
X169261905Y-114852381D01*
X169309524Y-115328571D01*
X169261905Y-115280952D01*
X169166667Y-115233333D01*
X168928571Y-115233333D01*
X168833333Y-115280952D01*
X168785714Y-115328571D01*
X168738095Y-115423810D01*
X168738095Y-115661905D01*
X168785714Y-115757143D01*
X168833333Y-115804762D01*
X168928571Y-115852381D01*
X169166667Y-115852381D01*
X169261905Y-115804762D01*
X169309524Y-115757143D01*
X167842857Y-115852381D02*
X168176191Y-115376190D01*
X168414286Y-115852381D02*
X168414286Y-114852381D01*
X168033333Y-114852381D01*
X167938095Y-114900000D01*
X167890476Y-114947619D01*
X167842857Y-115042857D01*
X167842857Y-115185714D01*
X167890476Y-115280952D01*
X167938095Y-115328571D01*
X168033333Y-115376190D01*
X168414286Y-115376190D01*
X166890476Y-115852381D02*
X167461905Y-115852381D01*
X167176191Y-115852381D02*
X167176191Y-114852381D01*
X167271429Y-114995238D01*
X167366667Y-115090476D01*
X167461905Y-115138095D01*
X166033333Y-114852381D02*
X166223810Y-114852381D01*
X166319048Y-114900000D01*
X166366667Y-114947619D01*
X166461905Y-115090476D01*
X166509524Y-115280952D01*
X166509524Y-115661905D01*
X166461905Y-115757143D01*
X166414286Y-115804762D01*
X166319048Y-115852381D01*
X166128571Y-115852381D01*
X166033333Y-115804762D01*
X165985714Y-115757143D01*
X165938095Y-115661905D01*
X165938095Y-115423810D01*
X165985714Y-115328571D01*
X166033333Y-115280952D01*
X166128571Y-115233333D01*
X166319048Y-115233333D01*
X166414286Y-115280952D01*
X166461905Y-115328571D01*
X166509524Y-115423810D01*
X170442857Y-107052381D02*
X170776191Y-106576190D01*
X171014286Y-107052381D02*
X171014286Y-106052381D01*
X170633333Y-106052381D01*
X170538095Y-106100000D01*
X170490476Y-106147619D01*
X170442857Y-106242857D01*
X170442857Y-106385714D01*
X170490476Y-106480952D01*
X170538095Y-106528571D01*
X170633333Y-106576190D01*
X171014286Y-106576190D01*
X169490476Y-107052381D02*
X170061905Y-107052381D01*
X169776191Y-107052381D02*
X169776191Y-106052381D01*
X169871429Y-106195238D01*
X169966667Y-106290476D01*
X170061905Y-106338095D01*
X169157143Y-106052381D02*
X168490476Y-106052381D01*
X168919048Y-107052381D01*
X167742857Y-107052381D02*
X168076191Y-106576190D01*
X168314286Y-107052381D02*
X168314286Y-106052381D01*
X167933333Y-106052381D01*
X167838095Y-106100000D01*
X167790476Y-106147619D01*
X167742857Y-106242857D01*
X167742857Y-106385714D01*
X167790476Y-106480952D01*
X167838095Y-106528571D01*
X167933333Y-106576190D01*
X168314286Y-106576190D01*
X166790476Y-107052381D02*
X167361905Y-107052381D01*
X167076191Y-107052381D02*
X167076191Y-106052381D01*
X167171429Y-106195238D01*
X167266667Y-106290476D01*
X167361905Y-106338095D01*
X166219048Y-106480952D02*
X166314286Y-106433333D01*
X166361905Y-106385714D01*
X166409524Y-106290476D01*
X166409524Y-106242857D01*
X166361905Y-106147619D01*
X166314286Y-106100000D01*
X166219048Y-106052381D01*
X166028571Y-106052381D01*
X165933333Y-106100000D01*
X165885714Y-106147619D01*
X165838095Y-106242857D01*
X165838095Y-106290476D01*
X165885714Y-106385714D01*
X165933333Y-106433333D01*
X166028571Y-106480952D01*
X166219048Y-106480952D01*
X166314286Y-106528571D01*
X166361905Y-106576190D01*
X166409524Y-106671429D01*
X166409524Y-106861905D01*
X166361905Y-106957143D01*
X166314286Y-107004762D01*
X166219048Y-107052381D01*
X166028571Y-107052381D01*
X165933333Y-107004762D01*
X165885714Y-106957143D01*
X165838095Y-106861905D01*
X165838095Y-106671429D01*
X165885714Y-106576190D01*
X165933333Y-106528571D01*
X166028571Y-106480952D01*
X183133333Y-62304762D02*
X182990476Y-62352381D01*
X182752380Y-62352381D01*
X182657142Y-62304762D01*
X182609523Y-62257143D01*
X182561904Y-62161905D01*
X182561904Y-62066667D01*
X182609523Y-61971429D01*
X182657142Y-61923810D01*
X182752380Y-61876190D01*
X182942857Y-61828571D01*
X183038095Y-61780952D01*
X183085714Y-61733333D01*
X183133333Y-61638095D01*
X183133333Y-61542857D01*
X183085714Y-61447619D01*
X183038095Y-61400000D01*
X182942857Y-61352381D01*
X182704761Y-61352381D01*
X182561904Y-61400000D01*
X182228571Y-61352381D02*
X181990476Y-62352381D01*
X181799999Y-61638095D01*
X181609523Y-62352381D01*
X181371428Y-61352381D01*
X180466666Y-62352381D02*
X181038095Y-62352381D01*
X180752381Y-62352381D02*
X180752381Y-61352381D01*
X180847619Y-61495238D01*
X180942857Y-61590476D01*
X181038095Y-61638095D01*
X191733333Y-121604762D02*
X191590476Y-121652381D01*
X191352380Y-121652381D01*
X191257142Y-121604762D01*
X191209523Y-121557143D01*
X191161904Y-121461905D01*
X191161904Y-121366667D01*
X191209523Y-121271429D01*
X191257142Y-121223810D01*
X191352380Y-121176190D01*
X191542857Y-121128571D01*
X191638095Y-121080952D01*
X191685714Y-121033333D01*
X191733333Y-120938095D01*
X191733333Y-120842857D01*
X191685714Y-120747619D01*
X191638095Y-120700000D01*
X191542857Y-120652381D01*
X191304761Y-120652381D01*
X191161904Y-120700000D01*
X190828571Y-120652381D02*
X190590476Y-121652381D01*
X190399999Y-120938095D01*
X190209523Y-121652381D01*
X189971428Y-120652381D01*
X189638095Y-120747619D02*
X189590476Y-120700000D01*
X189495238Y-120652381D01*
X189257142Y-120652381D01*
X189161904Y-120700000D01*
X189114285Y-120747619D01*
X189066666Y-120842857D01*
X189066666Y-120938095D01*
X189114285Y-121080952D01*
X189685714Y-121652381D01*
X189066666Y-121652381D01*
X169852381Y-112638095D02*
X170661905Y-112638095D01*
X170757143Y-112685714D01*
X170804762Y-112733333D01*
X170852381Y-112828571D01*
X170852381Y-113019048D01*
X170804762Y-113114286D01*
X170757143Y-113161905D01*
X170661905Y-113209524D01*
X169852381Y-113209524D01*
X169947619Y-113638095D02*
X169900000Y-113685714D01*
X169852381Y-113780952D01*
X169852381Y-114019048D01*
X169900000Y-114114286D01*
X169947619Y-114161905D01*
X170042857Y-114209524D01*
X170138095Y-114209524D01*
X170280952Y-114161905D01*
X170852381Y-113590476D01*
X170852381Y-114209524D01*
X169752381Y-103738095D02*
X170561905Y-103738095D01*
X170657143Y-103785714D01*
X170704762Y-103833333D01*
X170752381Y-103928571D01*
X170752381Y-104119048D01*
X170704762Y-104214286D01*
X170657143Y-104261905D01*
X170561905Y-104309524D01*
X169752381Y-104309524D01*
X169752381Y-104690476D02*
X169752381Y-105309524D01*
X170133333Y-104976190D01*
X170133333Y-105119048D01*
X170180952Y-105214286D01*
X170228571Y-105261905D01*
X170323810Y-105309524D01*
X170561905Y-105309524D01*
X170657143Y-105261905D01*
X170704762Y-105214286D01*
X170752381Y-105119048D01*
X170752381Y-104833333D01*
X170704762Y-104738095D01*
X170657143Y-104690476D01*
X182976190Y-86423809D02*
X183452381Y-86423809D01*
X182452381Y-86090476D02*
X182976190Y-86423809D01*
X182452381Y-86757143D01*
X183452381Y-87614286D02*
X183452381Y-87042857D01*
X183452381Y-87328571D02*
X182452381Y-87328571D01*
X182595238Y-87233333D01*
X182690476Y-87138095D01*
X182738095Y-87042857D01*
X145642857Y-73857143D02*
X145690476Y-73904762D01*
X145833333Y-73952381D01*
X145928571Y-73952381D01*
X146071429Y-73904762D01*
X146166667Y-73809524D01*
X146214286Y-73714286D01*
X146261905Y-73523810D01*
X146261905Y-73380952D01*
X146214286Y-73190476D01*
X146166667Y-73095238D01*
X146071429Y-73000000D01*
X145928571Y-72952381D01*
X145833333Y-72952381D01*
X145690476Y-73000000D01*
X145642857Y-73047619D01*
X145261905Y-73047619D02*
X145214286Y-73000000D01*
X145119048Y-72952381D01*
X144880952Y-72952381D01*
X144785714Y-73000000D01*
X144738095Y-73047619D01*
X144690476Y-73142857D01*
X144690476Y-73238095D01*
X144738095Y-73380952D01*
X145309524Y-73952381D01*
X144690476Y-73952381D01*
X144071429Y-72952381D02*
X143976190Y-72952381D01*
X143880952Y-73000000D01*
X143833333Y-73047619D01*
X143785714Y-73142857D01*
X143738095Y-73333333D01*
X143738095Y-73571429D01*
X143785714Y-73761905D01*
X143833333Y-73857143D01*
X143880952Y-73904762D01*
X143976190Y-73952381D01*
X144071429Y-73952381D01*
X144166667Y-73904762D01*
X144214286Y-73857143D01*
X144261905Y-73761905D01*
X144309524Y-73571429D01*
X144309524Y-73333333D01*
X144261905Y-73142857D01*
X144214286Y-73047619D01*
X144166667Y-73000000D01*
X144071429Y-72952381D01*
X145642857Y-109857143D02*
X145690476Y-109904762D01*
X145833333Y-109952381D01*
X145928571Y-109952381D01*
X146071429Y-109904762D01*
X146166667Y-109809524D01*
X146214286Y-109714286D01*
X146261905Y-109523810D01*
X146261905Y-109380952D01*
X146214286Y-109190476D01*
X146166667Y-109095238D01*
X146071429Y-109000000D01*
X145928571Y-108952381D01*
X145833333Y-108952381D01*
X145690476Y-109000000D01*
X145642857Y-109047619D01*
X145261905Y-109047619D02*
X145214286Y-109000000D01*
X145119048Y-108952381D01*
X144880952Y-108952381D01*
X144785714Y-109000000D01*
X144738095Y-109047619D01*
X144690476Y-109142857D01*
X144690476Y-109238095D01*
X144738095Y-109380952D01*
X145309524Y-109952381D01*
X144690476Y-109952381D01*
X144357143Y-108952381D02*
X143690476Y-108952381D01*
X144119048Y-109952381D01*
X134392381Y-58190477D02*
X135106667Y-58190477D01*
X135249524Y-58142857D01*
X135344762Y-58047619D01*
X135392381Y-57904762D01*
X135392381Y-57809524D01*
X135392381Y-59190477D02*
X135392381Y-58619048D01*
X135392381Y-58904762D02*
X134392381Y-58904762D01*
X134535238Y-58809524D01*
X134630476Y-58714286D01*
X134678095Y-58619048D01*
X134725714Y-60047620D02*
X135392381Y-60047620D01*
X134344762Y-59809524D02*
X135059048Y-59571429D01*
X135059048Y-60190477D01*
X148442857Y-65452381D02*
X148776191Y-64976190D01*
X149014286Y-65452381D02*
X149014286Y-64452381D01*
X148633333Y-64452381D01*
X148538095Y-64500000D01*
X148490476Y-64547619D01*
X148442857Y-64642857D01*
X148442857Y-64785714D01*
X148490476Y-64880952D01*
X148538095Y-64928571D01*
X148633333Y-64976190D01*
X149014286Y-64976190D01*
X147490476Y-65452381D02*
X148061905Y-65452381D01*
X147776191Y-65452381D02*
X147776191Y-64452381D01*
X147871429Y-64595238D01*
X147966667Y-64690476D01*
X148061905Y-64738095D01*
X147014286Y-65452381D02*
X146823810Y-65452381D01*
X146728571Y-65404762D01*
X146680952Y-65357143D01*
X146585714Y-65214286D01*
X146538095Y-65023810D01*
X146538095Y-64642857D01*
X146585714Y-64547619D01*
X146633333Y-64500000D01*
X146728571Y-64452381D01*
X146919048Y-64452381D01*
X147014286Y-64500000D01*
X147061905Y-64547619D01*
X147109524Y-64642857D01*
X147109524Y-64880952D01*
X147061905Y-64976190D01*
X147014286Y-65023810D01*
X146919048Y-65071429D01*
X146728571Y-65071429D01*
X146633333Y-65023810D01*
X146585714Y-64976190D01*
X146538095Y-64880952D01*
X152642857Y-65552381D02*
X152976191Y-65076190D01*
X153214286Y-65552381D02*
X153214286Y-64552381D01*
X152833333Y-64552381D01*
X152738095Y-64600000D01*
X152690476Y-64647619D01*
X152642857Y-64742857D01*
X152642857Y-64885714D01*
X152690476Y-64980952D01*
X152738095Y-65028571D01*
X152833333Y-65076190D01*
X153214286Y-65076190D01*
X152261905Y-64647619D02*
X152214286Y-64600000D01*
X152119048Y-64552381D01*
X151880952Y-64552381D01*
X151785714Y-64600000D01*
X151738095Y-64647619D01*
X151690476Y-64742857D01*
X151690476Y-64838095D01*
X151738095Y-64980952D01*
X152309524Y-65552381D01*
X151690476Y-65552381D01*
X151071429Y-64552381D02*
X150976190Y-64552381D01*
X150880952Y-64600000D01*
X150833333Y-64647619D01*
X150785714Y-64742857D01*
X150738095Y-64933333D01*
X150738095Y-65171429D01*
X150785714Y-65361905D01*
X150833333Y-65457143D01*
X150880952Y-65504762D01*
X150976190Y-65552381D01*
X151071429Y-65552381D01*
X151166667Y-65504762D01*
X151214286Y-65457143D01*
X151261905Y-65361905D01*
X151309524Y-65171429D01*
X151309524Y-64933333D01*
X151261905Y-64742857D01*
X151214286Y-64647619D01*
X151166667Y-64600000D01*
X151071429Y-64552381D01*
X127302381Y-63257143D02*
X126826190Y-62923809D01*
X127302381Y-62685714D02*
X126302381Y-62685714D01*
X126302381Y-63066667D01*
X126350000Y-63161905D01*
X126397619Y-63209524D01*
X126492857Y-63257143D01*
X126635714Y-63257143D01*
X126730952Y-63209524D01*
X126778571Y-63161905D01*
X126826190Y-63066667D01*
X126826190Y-62685714D01*
X126397619Y-63638095D02*
X126350000Y-63685714D01*
X126302381Y-63780952D01*
X126302381Y-64019048D01*
X126350000Y-64114286D01*
X126397619Y-64161905D01*
X126492857Y-64209524D01*
X126588095Y-64209524D01*
X126730952Y-64161905D01*
X127302381Y-63590476D01*
X127302381Y-64209524D01*
X127302381Y-65161905D02*
X127302381Y-64590476D01*
X127302381Y-64876190D02*
X126302381Y-64876190D01*
X126445238Y-64780952D01*
X126540476Y-64685714D01*
X126588095Y-64590476D01*
X144852381Y-62857143D02*
X144376190Y-62523809D01*
X144852381Y-62285714D02*
X143852381Y-62285714D01*
X143852381Y-62666667D01*
X143900000Y-62761905D01*
X143947619Y-62809524D01*
X144042857Y-62857143D01*
X144185714Y-62857143D01*
X144280952Y-62809524D01*
X144328571Y-62761905D01*
X144376190Y-62666667D01*
X144376190Y-62285714D01*
X143947619Y-63238095D02*
X143900000Y-63285714D01*
X143852381Y-63380952D01*
X143852381Y-63619048D01*
X143900000Y-63714286D01*
X143947619Y-63761905D01*
X144042857Y-63809524D01*
X144138095Y-63809524D01*
X144280952Y-63761905D01*
X144852381Y-63190476D01*
X144852381Y-63809524D01*
X143947619Y-64190476D02*
X143900000Y-64238095D01*
X143852381Y-64333333D01*
X143852381Y-64571429D01*
X143900000Y-64666667D01*
X143947619Y-64714286D01*
X144042857Y-64761905D01*
X144138095Y-64761905D01*
X144280952Y-64714286D01*
X144852381Y-64142857D01*
X144852381Y-64761905D01*
X126842857Y-66302381D02*
X127176191Y-65826190D01*
X127414286Y-66302381D02*
X127414286Y-65302381D01*
X127033333Y-65302381D01*
X126938095Y-65350000D01*
X126890476Y-65397619D01*
X126842857Y-65492857D01*
X126842857Y-65635714D01*
X126890476Y-65730952D01*
X126938095Y-65778571D01*
X127033333Y-65826190D01*
X127414286Y-65826190D01*
X126461905Y-65397619D02*
X126414286Y-65350000D01*
X126319048Y-65302381D01*
X126080952Y-65302381D01*
X125985714Y-65350000D01*
X125938095Y-65397619D01*
X125890476Y-65492857D01*
X125890476Y-65588095D01*
X125938095Y-65730952D01*
X126509524Y-66302381D01*
X125890476Y-66302381D01*
X125557143Y-65302381D02*
X124938095Y-65302381D01*
X125271429Y-65683333D01*
X125128571Y-65683333D01*
X125033333Y-65730952D01*
X124985714Y-65778571D01*
X124938095Y-65873810D01*
X124938095Y-66111905D01*
X124985714Y-66207143D01*
X125033333Y-66254762D01*
X125128571Y-66302381D01*
X125414286Y-66302381D01*
X125509524Y-66254762D01*
X125557143Y-66207143D01*
X141442857Y-65052381D02*
X141776191Y-64576190D01*
X142014286Y-65052381D02*
X142014286Y-64052381D01*
X141633333Y-64052381D01*
X141538095Y-64100000D01*
X141490476Y-64147619D01*
X141442857Y-64242857D01*
X141442857Y-64385714D01*
X141490476Y-64480952D01*
X141538095Y-64528571D01*
X141633333Y-64576190D01*
X142014286Y-64576190D01*
X141061905Y-64147619D02*
X141014286Y-64100000D01*
X140919048Y-64052381D01*
X140680952Y-64052381D01*
X140585714Y-64100000D01*
X140538095Y-64147619D01*
X140490476Y-64242857D01*
X140490476Y-64338095D01*
X140538095Y-64480952D01*
X141109524Y-65052381D01*
X140490476Y-65052381D01*
X139633333Y-64385714D02*
X139633333Y-65052381D01*
X139871429Y-64004762D02*
X140109524Y-64719048D01*
X139490476Y-64719048D01*
X130442857Y-81452381D02*
X130776191Y-80976190D01*
X131014286Y-81452381D02*
X131014286Y-80452381D01*
X130633333Y-80452381D01*
X130538095Y-80500000D01*
X130490476Y-80547619D01*
X130442857Y-80642857D01*
X130442857Y-80785714D01*
X130490476Y-80880952D01*
X130538095Y-80928571D01*
X130633333Y-80976190D01*
X131014286Y-80976190D01*
X130109524Y-80452381D02*
X129490476Y-80452381D01*
X129823810Y-80833333D01*
X129680952Y-80833333D01*
X129585714Y-80880952D01*
X129538095Y-80928571D01*
X129490476Y-81023810D01*
X129490476Y-81261905D01*
X129538095Y-81357143D01*
X129585714Y-81404762D01*
X129680952Y-81452381D01*
X129966667Y-81452381D01*
X130061905Y-81404762D01*
X130109524Y-81357143D01*
X128633333Y-80785714D02*
X128633333Y-81452381D01*
X128871429Y-80404762D02*
X129109524Y-81119048D01*
X128490476Y-81119048D01*
X142142857Y-79902381D02*
X142476191Y-79426190D01*
X142714286Y-79902381D02*
X142714286Y-78902381D01*
X142333333Y-78902381D01*
X142238095Y-78950000D01*
X142190476Y-78997619D01*
X142142857Y-79092857D01*
X142142857Y-79235714D01*
X142190476Y-79330952D01*
X142238095Y-79378571D01*
X142333333Y-79426190D01*
X142714286Y-79426190D01*
X141809524Y-78902381D02*
X141190476Y-78902381D01*
X141523810Y-79283333D01*
X141380952Y-79283333D01*
X141285714Y-79330952D01*
X141238095Y-79378571D01*
X141190476Y-79473810D01*
X141190476Y-79711905D01*
X141238095Y-79807143D01*
X141285714Y-79854762D01*
X141380952Y-79902381D01*
X141666667Y-79902381D01*
X141761905Y-79854762D01*
X141809524Y-79807143D01*
X140857143Y-78902381D02*
X140238095Y-78902381D01*
X140571429Y-79283333D01*
X140428571Y-79283333D01*
X140333333Y-79330952D01*
X140285714Y-79378571D01*
X140238095Y-79473810D01*
X140238095Y-79711905D01*
X140285714Y-79807143D01*
X140333333Y-79854762D01*
X140428571Y-79902381D01*
X140714286Y-79902381D01*
X140809524Y-79854762D01*
X140857143Y-79807143D01*
X132352381Y-81757143D02*
X131876190Y-81423809D01*
X132352381Y-81185714D02*
X131352381Y-81185714D01*
X131352381Y-81566667D01*
X131400000Y-81661905D01*
X131447619Y-81709524D01*
X131542857Y-81757143D01*
X131685714Y-81757143D01*
X131780952Y-81709524D01*
X131828571Y-81661905D01*
X131876190Y-81566667D01*
X131876190Y-81185714D01*
X131352381Y-82090476D02*
X131352381Y-82709524D01*
X131733333Y-82376190D01*
X131733333Y-82519048D01*
X131780952Y-82614286D01*
X131828571Y-82661905D01*
X131923810Y-82709524D01*
X132161905Y-82709524D01*
X132257143Y-82661905D01*
X132304762Y-82614286D01*
X132352381Y-82519048D01*
X132352381Y-82233333D01*
X132304762Y-82138095D01*
X132257143Y-82090476D01*
X131352381Y-83566667D02*
X131352381Y-83376190D01*
X131400000Y-83280952D01*
X131447619Y-83233333D01*
X131590476Y-83138095D01*
X131780952Y-83090476D01*
X132161905Y-83090476D01*
X132257143Y-83138095D01*
X132304762Y-83185714D01*
X132352381Y-83280952D01*
X132352381Y-83471429D01*
X132304762Y-83566667D01*
X132257143Y-83614286D01*
X132161905Y-83661905D01*
X131923810Y-83661905D01*
X131828571Y-83614286D01*
X131780952Y-83566667D01*
X131733333Y-83471429D01*
X131733333Y-83280952D01*
X131780952Y-83185714D01*
X131828571Y-83138095D01*
X131923810Y-83090476D01*
X138452381Y-77857143D02*
X137976190Y-77523809D01*
X138452381Y-77285714D02*
X137452381Y-77285714D01*
X137452381Y-77666667D01*
X137500000Y-77761905D01*
X137547619Y-77809524D01*
X137642857Y-77857143D01*
X137785714Y-77857143D01*
X137880952Y-77809524D01*
X137928571Y-77761905D01*
X137976190Y-77666667D01*
X137976190Y-77285714D01*
X137452381Y-78190476D02*
X137452381Y-78809524D01*
X137833333Y-78476190D01*
X137833333Y-78619048D01*
X137880952Y-78714286D01*
X137928571Y-78761905D01*
X138023810Y-78809524D01*
X138261905Y-78809524D01*
X138357143Y-78761905D01*
X138404762Y-78714286D01*
X138452381Y-78619048D01*
X138452381Y-78333333D01*
X138404762Y-78238095D01*
X138357143Y-78190476D01*
X137452381Y-79714286D02*
X137452381Y-79238095D01*
X137928571Y-79190476D01*
X137880952Y-79238095D01*
X137833333Y-79333333D01*
X137833333Y-79571429D01*
X137880952Y-79666667D01*
X137928571Y-79714286D01*
X138023810Y-79761905D01*
X138261905Y-79761905D01*
X138357143Y-79714286D01*
X138404762Y-79666667D01*
X138452381Y-79571429D01*
X138452381Y-79333333D01*
X138404762Y-79238095D01*
X138357143Y-79190476D01*
X148442857Y-101352381D02*
X148776191Y-100876190D01*
X149014286Y-101352381D02*
X149014286Y-100352381D01*
X148633333Y-100352381D01*
X148538095Y-100400000D01*
X148490476Y-100447619D01*
X148442857Y-100542857D01*
X148442857Y-100685714D01*
X148490476Y-100780952D01*
X148538095Y-100828571D01*
X148633333Y-100876190D01*
X149014286Y-100876190D01*
X148109524Y-100352381D02*
X147490476Y-100352381D01*
X147823810Y-100733333D01*
X147680952Y-100733333D01*
X147585714Y-100780952D01*
X147538095Y-100828571D01*
X147490476Y-100923810D01*
X147490476Y-101161905D01*
X147538095Y-101257143D01*
X147585714Y-101304762D01*
X147680952Y-101352381D01*
X147966667Y-101352381D01*
X148061905Y-101304762D01*
X148109524Y-101257143D01*
X147157143Y-100352381D02*
X146490476Y-100352381D01*
X146919048Y-101352381D01*
X152642857Y-101452381D02*
X152976191Y-100976190D01*
X153214286Y-101452381D02*
X153214286Y-100452381D01*
X152833333Y-100452381D01*
X152738095Y-100500000D01*
X152690476Y-100547619D01*
X152642857Y-100642857D01*
X152642857Y-100785714D01*
X152690476Y-100880952D01*
X152738095Y-100928571D01*
X152833333Y-100976190D01*
X153214286Y-100976190D01*
X152309524Y-100452381D02*
X151690476Y-100452381D01*
X152023810Y-100833333D01*
X151880952Y-100833333D01*
X151785714Y-100880952D01*
X151738095Y-100928571D01*
X151690476Y-101023810D01*
X151690476Y-101261905D01*
X151738095Y-101357143D01*
X151785714Y-101404762D01*
X151880952Y-101452381D01*
X152166667Y-101452381D01*
X152261905Y-101404762D01*
X152309524Y-101357143D01*
X151119048Y-100880952D02*
X151214286Y-100833333D01*
X151261905Y-100785714D01*
X151309524Y-100690476D01*
X151309524Y-100642857D01*
X151261905Y-100547619D01*
X151214286Y-100500000D01*
X151119048Y-100452381D01*
X150928571Y-100452381D01*
X150833333Y-100500000D01*
X150785714Y-100547619D01*
X150738095Y-100642857D01*
X150738095Y-100690476D01*
X150785714Y-100785714D01*
X150833333Y-100833333D01*
X150928571Y-100880952D01*
X151119048Y-100880952D01*
X151214286Y-100928571D01*
X151261905Y-100976190D01*
X151309524Y-101071429D01*
X151309524Y-101261905D01*
X151261905Y-101357143D01*
X151214286Y-101404762D01*
X151119048Y-101452381D01*
X150928571Y-101452381D01*
X150833333Y-101404762D01*
X150785714Y-101357143D01*
X150738095Y-101261905D01*
X150738095Y-101071429D01*
X150785714Y-100976190D01*
X150833333Y-100928571D01*
X150928571Y-100880952D01*
X124352381Y-96557143D02*
X123876190Y-96223809D01*
X124352381Y-95985714D02*
X123352381Y-95985714D01*
X123352381Y-96366667D01*
X123400000Y-96461905D01*
X123447619Y-96509524D01*
X123542857Y-96557143D01*
X123685714Y-96557143D01*
X123780952Y-96509524D01*
X123828571Y-96461905D01*
X123876190Y-96366667D01*
X123876190Y-95985714D01*
X123352381Y-96890476D02*
X123352381Y-97509524D01*
X123733333Y-97176190D01*
X123733333Y-97319048D01*
X123780952Y-97414286D01*
X123828571Y-97461905D01*
X123923810Y-97509524D01*
X124161905Y-97509524D01*
X124257143Y-97461905D01*
X124304762Y-97414286D01*
X124352381Y-97319048D01*
X124352381Y-97033333D01*
X124304762Y-96938095D01*
X124257143Y-96890476D01*
X124352381Y-97985714D02*
X124352381Y-98176190D01*
X124304762Y-98271429D01*
X124257143Y-98319048D01*
X124114286Y-98414286D01*
X123923810Y-98461905D01*
X123542857Y-98461905D01*
X123447619Y-98414286D01*
X123400000Y-98366667D01*
X123352381Y-98271429D01*
X123352381Y-98080952D01*
X123400000Y-97985714D01*
X123447619Y-97938095D01*
X123542857Y-97890476D01*
X123780952Y-97890476D01*
X123876190Y-97938095D01*
X123923810Y-97985714D01*
X123971429Y-98080952D01*
X123971429Y-98271429D01*
X123923810Y-98366667D01*
X123876190Y-98414286D01*
X123780952Y-98461905D01*
X137352381Y-98157143D02*
X136876190Y-97823809D01*
X137352381Y-97585714D02*
X136352381Y-97585714D01*
X136352381Y-97966667D01*
X136400000Y-98061905D01*
X136447619Y-98109524D01*
X136542857Y-98157143D01*
X136685714Y-98157143D01*
X136780952Y-98109524D01*
X136828571Y-98061905D01*
X136876190Y-97966667D01*
X136876190Y-97585714D01*
X136685714Y-99014286D02*
X137352381Y-99014286D01*
X136304762Y-98776190D02*
X137019048Y-98538095D01*
X137019048Y-99157143D01*
X136352381Y-99728571D02*
X136352381Y-99823810D01*
X136400000Y-99919048D01*
X136447619Y-99966667D01*
X136542857Y-100014286D01*
X136733333Y-100061905D01*
X136971429Y-100061905D01*
X137161905Y-100014286D01*
X137257143Y-99966667D01*
X137304762Y-99919048D01*
X137352381Y-99823810D01*
X137352381Y-99728571D01*
X137304762Y-99633333D01*
X137257143Y-99585714D01*
X137161905Y-99538095D01*
X136971429Y-99490476D01*
X136733333Y-99490476D01*
X136542857Y-99538095D01*
X136447619Y-99585714D01*
X136400000Y-99633333D01*
X136352381Y-99728571D01*
X122242857Y-99552381D02*
X122576191Y-99076190D01*
X122814286Y-99552381D02*
X122814286Y-98552381D01*
X122433333Y-98552381D01*
X122338095Y-98600000D01*
X122290476Y-98647619D01*
X122242857Y-98742857D01*
X122242857Y-98885714D01*
X122290476Y-98980952D01*
X122338095Y-99028571D01*
X122433333Y-99076190D01*
X122814286Y-99076190D01*
X121385714Y-98885714D02*
X121385714Y-99552381D01*
X121623810Y-98504762D02*
X121861905Y-99219048D01*
X121242857Y-99219048D01*
X120338095Y-99552381D02*
X120909524Y-99552381D01*
X120623810Y-99552381D02*
X120623810Y-98552381D01*
X120719048Y-98695238D01*
X120814286Y-98790476D01*
X120909524Y-98838095D01*
X135442857Y-101152381D02*
X135776191Y-100676190D01*
X136014286Y-101152381D02*
X136014286Y-100152381D01*
X135633333Y-100152381D01*
X135538095Y-100200000D01*
X135490476Y-100247619D01*
X135442857Y-100342857D01*
X135442857Y-100485714D01*
X135490476Y-100580952D01*
X135538095Y-100628571D01*
X135633333Y-100676190D01*
X136014286Y-100676190D01*
X134585714Y-100485714D02*
X134585714Y-101152381D01*
X134823810Y-100104762D02*
X135061905Y-100819048D01*
X134442857Y-100819048D01*
X134109524Y-100247619D02*
X134061905Y-100200000D01*
X133966667Y-100152381D01*
X133728571Y-100152381D01*
X133633333Y-100200000D01*
X133585714Y-100247619D01*
X133538095Y-100342857D01*
X133538095Y-100438095D01*
X133585714Y-100580952D01*
X134157143Y-101152381D01*
X133538095Y-101152381D01*
X130442857Y-117352381D02*
X130776191Y-116876190D01*
X131014286Y-117352381D02*
X131014286Y-116352381D01*
X130633333Y-116352381D01*
X130538095Y-116400000D01*
X130490476Y-116447619D01*
X130442857Y-116542857D01*
X130442857Y-116685714D01*
X130490476Y-116780952D01*
X130538095Y-116828571D01*
X130633333Y-116876190D01*
X131014286Y-116876190D01*
X129538095Y-116352381D02*
X130014286Y-116352381D01*
X130061905Y-116828571D01*
X130014286Y-116780952D01*
X129919048Y-116733333D01*
X129680952Y-116733333D01*
X129585714Y-116780952D01*
X129538095Y-116828571D01*
X129490476Y-116923810D01*
X129490476Y-117161905D01*
X129538095Y-117257143D01*
X129585714Y-117304762D01*
X129680952Y-117352381D01*
X129919048Y-117352381D01*
X130014286Y-117304762D01*
X130061905Y-117257143D01*
X129109524Y-116447619D02*
X129061905Y-116400000D01*
X128966667Y-116352381D01*
X128728571Y-116352381D01*
X128633333Y-116400000D01*
X128585714Y-116447619D01*
X128538095Y-116542857D01*
X128538095Y-116638095D01*
X128585714Y-116780952D01*
X129157143Y-117352381D01*
X128538095Y-117352381D01*
X136142857Y-115902381D02*
X136476191Y-115426190D01*
X136714286Y-115902381D02*
X136714286Y-114902381D01*
X136333333Y-114902381D01*
X136238095Y-114950000D01*
X136190476Y-114997619D01*
X136142857Y-115092857D01*
X136142857Y-115235714D01*
X136190476Y-115330952D01*
X136238095Y-115378571D01*
X136333333Y-115426190D01*
X136714286Y-115426190D01*
X135238095Y-114902381D02*
X135714286Y-114902381D01*
X135761905Y-115378571D01*
X135714286Y-115330952D01*
X135619048Y-115283333D01*
X135380952Y-115283333D01*
X135285714Y-115330952D01*
X135238095Y-115378571D01*
X135190476Y-115473810D01*
X135190476Y-115711905D01*
X135238095Y-115807143D01*
X135285714Y-115854762D01*
X135380952Y-115902381D01*
X135619048Y-115902381D01*
X135714286Y-115854762D01*
X135761905Y-115807143D01*
X134238095Y-115902381D02*
X134809524Y-115902381D01*
X134523810Y-115902381D02*
X134523810Y-114902381D01*
X134619048Y-115045238D01*
X134714286Y-115140476D01*
X134809524Y-115188095D01*
X132452381Y-117757143D02*
X131976190Y-117423809D01*
X132452381Y-117185714D02*
X131452381Y-117185714D01*
X131452381Y-117566667D01*
X131500000Y-117661905D01*
X131547619Y-117709524D01*
X131642857Y-117757143D01*
X131785714Y-117757143D01*
X131880952Y-117709524D01*
X131928571Y-117661905D01*
X131976190Y-117566667D01*
X131976190Y-117185714D01*
X131452381Y-118661905D02*
X131452381Y-118185714D01*
X131928571Y-118138095D01*
X131880952Y-118185714D01*
X131833333Y-118280952D01*
X131833333Y-118519048D01*
X131880952Y-118614286D01*
X131928571Y-118661905D01*
X132023810Y-118709524D01*
X132261905Y-118709524D01*
X132357143Y-118661905D01*
X132404762Y-118614286D01*
X132452381Y-118519048D01*
X132452381Y-118280952D01*
X132404762Y-118185714D01*
X132357143Y-118138095D01*
X131785714Y-119566667D02*
X132452381Y-119566667D01*
X131404762Y-119328571D02*
X132119048Y-119090476D01*
X132119048Y-119709524D01*
X133852381Y-116457143D02*
X133376190Y-116123809D01*
X133852381Y-115885714D02*
X132852381Y-115885714D01*
X132852381Y-116266667D01*
X132900000Y-116361905D01*
X132947619Y-116409524D01*
X133042857Y-116457143D01*
X133185714Y-116457143D01*
X133280952Y-116409524D01*
X133328571Y-116361905D01*
X133376190Y-116266667D01*
X133376190Y-115885714D01*
X132852381Y-117361905D02*
X132852381Y-116885714D01*
X133328571Y-116838095D01*
X133280952Y-116885714D01*
X133233333Y-116980952D01*
X133233333Y-117219048D01*
X133280952Y-117314286D01*
X133328571Y-117361905D01*
X133423810Y-117409524D01*
X133661905Y-117409524D01*
X133757143Y-117361905D01*
X133804762Y-117314286D01*
X133852381Y-117219048D01*
X133852381Y-116980952D01*
X133804762Y-116885714D01*
X133757143Y-116838095D01*
X132852381Y-117742857D02*
X132852381Y-118361905D01*
X133233333Y-118028571D01*
X133233333Y-118171429D01*
X133280952Y-118266667D01*
X133328571Y-118314286D01*
X133423810Y-118361905D01*
X133661905Y-118361905D01*
X133757143Y-118314286D01*
X133804762Y-118266667D01*
X133852381Y-118171429D01*
X133852381Y-117885714D01*
X133804762Y-117790476D01*
X133757143Y-117742857D01*
X137352381Y-62157143D02*
X136876190Y-61823809D01*
X137352381Y-61585714D02*
X136352381Y-61585714D01*
X136352381Y-61966667D01*
X136400000Y-62061905D01*
X136447619Y-62109524D01*
X136542857Y-62157143D01*
X136685714Y-62157143D01*
X136780952Y-62109524D01*
X136828571Y-62061905D01*
X136876190Y-61966667D01*
X136876190Y-61585714D01*
X136447619Y-62538095D02*
X136400000Y-62585714D01*
X136352381Y-62680952D01*
X136352381Y-62919048D01*
X136400000Y-63014286D01*
X136447619Y-63061905D01*
X136542857Y-63109524D01*
X136638095Y-63109524D01*
X136780952Y-63061905D01*
X137352381Y-62490476D01*
X137352381Y-63109524D01*
X136352381Y-64014286D02*
X136352381Y-63538095D01*
X136828571Y-63490476D01*
X136780952Y-63538095D01*
X136733333Y-63633333D01*
X136733333Y-63871429D01*
X136780952Y-63966667D01*
X136828571Y-64014286D01*
X136923810Y-64061905D01*
X137161905Y-64061905D01*
X137257143Y-64014286D01*
X137304762Y-63966667D01*
X137352381Y-63871429D01*
X137352381Y-63633333D01*
X137304762Y-63538095D01*
X137257143Y-63490476D01*
X122902381Y-63257143D02*
X122426190Y-62923809D01*
X122902381Y-62685714D02*
X121902381Y-62685714D01*
X121902381Y-63066667D01*
X121950000Y-63161905D01*
X121997619Y-63209524D01*
X122092857Y-63257143D01*
X122235714Y-63257143D01*
X122330952Y-63209524D01*
X122378571Y-63161905D01*
X122426190Y-63066667D01*
X122426190Y-62685714D01*
X121997619Y-63638095D02*
X121950000Y-63685714D01*
X121902381Y-63780952D01*
X121902381Y-64019048D01*
X121950000Y-64114286D01*
X121997619Y-64161905D01*
X122092857Y-64209524D01*
X122188095Y-64209524D01*
X122330952Y-64161905D01*
X122902381Y-63590476D01*
X122902381Y-64209524D01*
X121902381Y-65066667D02*
X121902381Y-64876190D01*
X121950000Y-64780952D01*
X121997619Y-64733333D01*
X122140476Y-64638095D01*
X122330952Y-64590476D01*
X122711905Y-64590476D01*
X122807143Y-64638095D01*
X122854762Y-64685714D01*
X122902381Y-64780952D01*
X122902381Y-64971429D01*
X122854762Y-65066667D01*
X122807143Y-65114286D01*
X122711905Y-65161905D01*
X122473810Y-65161905D01*
X122378571Y-65114286D01*
X122330952Y-65066667D01*
X122283333Y-64971429D01*
X122283333Y-64780952D01*
X122330952Y-64685714D01*
X122378571Y-64638095D01*
X122473810Y-64590476D01*
X135442857Y-65052381D02*
X135776191Y-64576190D01*
X136014286Y-65052381D02*
X136014286Y-64052381D01*
X135633333Y-64052381D01*
X135538095Y-64100000D01*
X135490476Y-64147619D01*
X135442857Y-64242857D01*
X135442857Y-64385714D01*
X135490476Y-64480952D01*
X135538095Y-64528571D01*
X135633333Y-64576190D01*
X136014286Y-64576190D01*
X135061905Y-64147619D02*
X135014286Y-64100000D01*
X134919048Y-64052381D01*
X134680952Y-64052381D01*
X134585714Y-64100000D01*
X134538095Y-64147619D01*
X134490476Y-64242857D01*
X134490476Y-64338095D01*
X134538095Y-64480952D01*
X135109524Y-65052381D01*
X134490476Y-65052381D01*
X134157143Y-64052381D02*
X133490476Y-64052381D01*
X133919048Y-65052381D01*
X122442857Y-66302381D02*
X122776191Y-65826190D01*
X123014286Y-66302381D02*
X123014286Y-65302381D01*
X122633333Y-65302381D01*
X122538095Y-65350000D01*
X122490476Y-65397619D01*
X122442857Y-65492857D01*
X122442857Y-65635714D01*
X122490476Y-65730952D01*
X122538095Y-65778571D01*
X122633333Y-65826190D01*
X123014286Y-65826190D01*
X122061905Y-65397619D02*
X122014286Y-65350000D01*
X121919048Y-65302381D01*
X121680952Y-65302381D01*
X121585714Y-65350000D01*
X121538095Y-65397619D01*
X121490476Y-65492857D01*
X121490476Y-65588095D01*
X121538095Y-65730952D01*
X122109524Y-66302381D01*
X121490476Y-66302381D01*
X120919048Y-65730952D02*
X121014286Y-65683333D01*
X121061905Y-65635714D01*
X121109524Y-65540476D01*
X121109524Y-65492857D01*
X121061905Y-65397619D01*
X121014286Y-65350000D01*
X120919048Y-65302381D01*
X120728571Y-65302381D01*
X120633333Y-65350000D01*
X120585714Y-65397619D01*
X120538095Y-65492857D01*
X120538095Y-65540476D01*
X120585714Y-65635714D01*
X120633333Y-65683333D01*
X120728571Y-65730952D01*
X120919048Y-65730952D01*
X121014286Y-65778571D01*
X121061905Y-65826190D01*
X121109524Y-65921429D01*
X121109524Y-66111905D01*
X121061905Y-66207143D01*
X121014286Y-66254762D01*
X120919048Y-66302381D01*
X120728571Y-66302381D01*
X120633333Y-66254762D01*
X120585714Y-66207143D01*
X120538095Y-66111905D01*
X120538095Y-65921429D01*
X120585714Y-65826190D01*
X120633333Y-65778571D01*
X120728571Y-65730952D01*
X136142857Y-79902381D02*
X136476191Y-79426190D01*
X136714286Y-79902381D02*
X136714286Y-78902381D01*
X136333333Y-78902381D01*
X136238095Y-78950000D01*
X136190476Y-78997619D01*
X136142857Y-79092857D01*
X136142857Y-79235714D01*
X136190476Y-79330952D01*
X136238095Y-79378571D01*
X136333333Y-79426190D01*
X136714286Y-79426190D01*
X135761905Y-78997619D02*
X135714286Y-78950000D01*
X135619048Y-78902381D01*
X135380952Y-78902381D01*
X135285714Y-78950000D01*
X135238095Y-78997619D01*
X135190476Y-79092857D01*
X135190476Y-79188095D01*
X135238095Y-79330952D01*
X135809524Y-79902381D01*
X135190476Y-79902381D01*
X134714286Y-79902381D02*
X134523810Y-79902381D01*
X134428571Y-79854762D01*
X134380952Y-79807143D01*
X134285714Y-79664286D01*
X134238095Y-79473810D01*
X134238095Y-79092857D01*
X134285714Y-78997619D01*
X134333333Y-78950000D01*
X134428571Y-78902381D01*
X134619048Y-78902381D01*
X134714286Y-78950000D01*
X134761905Y-78997619D01*
X134809524Y-79092857D01*
X134809524Y-79330952D01*
X134761905Y-79426190D01*
X134714286Y-79473810D01*
X134619048Y-79521429D01*
X134428571Y-79521429D01*
X134333333Y-79473810D01*
X134285714Y-79426190D01*
X134238095Y-79330952D01*
X124742857Y-81552381D02*
X125076191Y-81076190D01*
X125314286Y-81552381D02*
X125314286Y-80552381D01*
X124933333Y-80552381D01*
X124838095Y-80600000D01*
X124790476Y-80647619D01*
X124742857Y-80742857D01*
X124742857Y-80885714D01*
X124790476Y-80980952D01*
X124838095Y-81028571D01*
X124933333Y-81076190D01*
X125314286Y-81076190D01*
X124409524Y-80552381D02*
X123790476Y-80552381D01*
X124123810Y-80933333D01*
X123980952Y-80933333D01*
X123885714Y-80980952D01*
X123838095Y-81028571D01*
X123790476Y-81123810D01*
X123790476Y-81361905D01*
X123838095Y-81457143D01*
X123885714Y-81504762D01*
X123980952Y-81552381D01*
X124266667Y-81552381D01*
X124361905Y-81504762D01*
X124409524Y-81457143D01*
X123171429Y-80552381D02*
X123076190Y-80552381D01*
X122980952Y-80600000D01*
X122933333Y-80647619D01*
X122885714Y-80742857D01*
X122838095Y-80933333D01*
X122838095Y-81171429D01*
X122885714Y-81361905D01*
X122933333Y-81457143D01*
X122980952Y-81504762D01*
X123076190Y-81552381D01*
X123171429Y-81552381D01*
X123266667Y-81504762D01*
X123314286Y-81457143D01*
X123361905Y-81361905D01*
X123409524Y-81171429D01*
X123409524Y-80933333D01*
X123361905Y-80742857D01*
X123314286Y-80647619D01*
X123266667Y-80600000D01*
X123171429Y-80552381D01*
X133852381Y-80457143D02*
X133376190Y-80123809D01*
X133852381Y-79885714D02*
X132852381Y-79885714D01*
X132852381Y-80266667D01*
X132900000Y-80361905D01*
X132947619Y-80409524D01*
X133042857Y-80457143D01*
X133185714Y-80457143D01*
X133280952Y-80409524D01*
X133328571Y-80361905D01*
X133376190Y-80266667D01*
X133376190Y-79885714D01*
X132852381Y-80790476D02*
X132852381Y-81409524D01*
X133233333Y-81076190D01*
X133233333Y-81219048D01*
X133280952Y-81314286D01*
X133328571Y-81361905D01*
X133423810Y-81409524D01*
X133661905Y-81409524D01*
X133757143Y-81361905D01*
X133804762Y-81314286D01*
X133852381Y-81219048D01*
X133852381Y-80933333D01*
X133804762Y-80838095D01*
X133757143Y-80790476D01*
X133852381Y-82361905D02*
X133852381Y-81790476D01*
X133852381Y-82076190D02*
X132852381Y-82076190D01*
X132995238Y-81980952D01*
X133090476Y-81885714D01*
X133138095Y-81790476D01*
X126652381Y-81957143D02*
X126176190Y-81623809D01*
X126652381Y-81385714D02*
X125652381Y-81385714D01*
X125652381Y-81766667D01*
X125700000Y-81861905D01*
X125747619Y-81909524D01*
X125842857Y-81957143D01*
X125985714Y-81957143D01*
X126080952Y-81909524D01*
X126128571Y-81861905D01*
X126176190Y-81766667D01*
X126176190Y-81385714D01*
X125652381Y-82290476D02*
X125652381Y-82909524D01*
X126033333Y-82576190D01*
X126033333Y-82719048D01*
X126080952Y-82814286D01*
X126128571Y-82861905D01*
X126223810Y-82909524D01*
X126461905Y-82909524D01*
X126557143Y-82861905D01*
X126604762Y-82814286D01*
X126652381Y-82719048D01*
X126652381Y-82433333D01*
X126604762Y-82338095D01*
X126557143Y-82290476D01*
X125747619Y-83290476D02*
X125700000Y-83338095D01*
X125652381Y-83433333D01*
X125652381Y-83671429D01*
X125700000Y-83766667D01*
X125747619Y-83814286D01*
X125842857Y-83861905D01*
X125938095Y-83861905D01*
X126080952Y-83814286D01*
X126652381Y-83242857D01*
X126652381Y-83861905D01*
X144852381Y-99857143D02*
X144376190Y-99523809D01*
X144852381Y-99285714D02*
X143852381Y-99285714D01*
X143852381Y-99666667D01*
X143900000Y-99761905D01*
X143947619Y-99809524D01*
X144042857Y-99857143D01*
X144185714Y-99857143D01*
X144280952Y-99809524D01*
X144328571Y-99761905D01*
X144376190Y-99666667D01*
X144376190Y-99285714D01*
X144185714Y-100714286D02*
X144852381Y-100714286D01*
X143804762Y-100476190D02*
X144519048Y-100238095D01*
X144519048Y-100857143D01*
X143852381Y-101142857D02*
X143852381Y-101761905D01*
X144233333Y-101428571D01*
X144233333Y-101571429D01*
X144280952Y-101666667D01*
X144328571Y-101714286D01*
X144423810Y-101761905D01*
X144661905Y-101761905D01*
X144757143Y-101714286D01*
X144804762Y-101666667D01*
X144852381Y-101571429D01*
X144852381Y-101285714D01*
X144804762Y-101190476D01*
X144757143Y-101142857D01*
X128752381Y-96557143D02*
X128276190Y-96223809D01*
X128752381Y-95985714D02*
X127752381Y-95985714D01*
X127752381Y-96366667D01*
X127800000Y-96461905D01*
X127847619Y-96509524D01*
X127942857Y-96557143D01*
X128085714Y-96557143D01*
X128180952Y-96509524D01*
X128228571Y-96461905D01*
X128276190Y-96366667D01*
X128276190Y-95985714D01*
X128085714Y-97414286D02*
X128752381Y-97414286D01*
X127704762Y-97176190D02*
X128419048Y-96938095D01*
X128419048Y-97557143D01*
X128085714Y-98366667D02*
X128752381Y-98366667D01*
X127704762Y-98128571D02*
X128419048Y-97890476D01*
X128419048Y-98509524D01*
X141442857Y-101152381D02*
X141776191Y-100676190D01*
X142014286Y-101152381D02*
X142014286Y-100152381D01*
X141633333Y-100152381D01*
X141538095Y-100200000D01*
X141490476Y-100247619D01*
X141442857Y-100342857D01*
X141442857Y-100485714D01*
X141490476Y-100580952D01*
X141538095Y-100628571D01*
X141633333Y-100676190D01*
X142014286Y-100676190D01*
X140585714Y-100485714D02*
X140585714Y-101152381D01*
X140823810Y-100104762D02*
X141061905Y-100819048D01*
X140442857Y-100819048D01*
X139585714Y-100152381D02*
X140061905Y-100152381D01*
X140109524Y-100628571D01*
X140061905Y-100580952D01*
X139966667Y-100533333D01*
X139728571Y-100533333D01*
X139633333Y-100580952D01*
X139585714Y-100628571D01*
X139538095Y-100723810D01*
X139538095Y-100961905D01*
X139585714Y-101057143D01*
X139633333Y-101104762D01*
X139728571Y-101152381D01*
X139966667Y-101152381D01*
X140061905Y-101104762D01*
X140109524Y-101057143D01*
X126842857Y-99552381D02*
X127176191Y-99076190D01*
X127414286Y-99552381D02*
X127414286Y-98552381D01*
X127033333Y-98552381D01*
X126938095Y-98600000D01*
X126890476Y-98647619D01*
X126842857Y-98742857D01*
X126842857Y-98885714D01*
X126890476Y-98980952D01*
X126938095Y-99028571D01*
X127033333Y-99076190D01*
X127414286Y-99076190D01*
X125985714Y-98885714D02*
X125985714Y-99552381D01*
X126223810Y-98504762D02*
X126461905Y-99219048D01*
X125842857Y-99219048D01*
X125033333Y-98552381D02*
X125223810Y-98552381D01*
X125319048Y-98600000D01*
X125366667Y-98647619D01*
X125461905Y-98790476D01*
X125509524Y-98980952D01*
X125509524Y-99361905D01*
X125461905Y-99457143D01*
X125414286Y-99504762D01*
X125319048Y-99552381D01*
X125128571Y-99552381D01*
X125033333Y-99504762D01*
X124985714Y-99457143D01*
X124938095Y-99361905D01*
X124938095Y-99123810D01*
X124985714Y-99028571D01*
X125033333Y-98980952D01*
X125128571Y-98933333D01*
X125319048Y-98933333D01*
X125414286Y-98980952D01*
X125461905Y-99028571D01*
X125509524Y-99123810D01*
X142242857Y-115902381D02*
X142576191Y-115426190D01*
X142814286Y-115902381D02*
X142814286Y-114902381D01*
X142433333Y-114902381D01*
X142338095Y-114950000D01*
X142290476Y-114997619D01*
X142242857Y-115092857D01*
X142242857Y-115235714D01*
X142290476Y-115330952D01*
X142338095Y-115378571D01*
X142433333Y-115426190D01*
X142814286Y-115426190D01*
X141385714Y-115235714D02*
X141385714Y-115902381D01*
X141623810Y-114854762D02*
X141861905Y-115569048D01*
X141242857Y-115569048D01*
X140957143Y-114902381D02*
X140290476Y-114902381D01*
X140719048Y-115902381D01*
X124742857Y-117552381D02*
X125076191Y-117076190D01*
X125314286Y-117552381D02*
X125314286Y-116552381D01*
X124933333Y-116552381D01*
X124838095Y-116600000D01*
X124790476Y-116647619D01*
X124742857Y-116742857D01*
X124742857Y-116885714D01*
X124790476Y-116980952D01*
X124838095Y-117028571D01*
X124933333Y-117076190D01*
X125314286Y-117076190D01*
X123885714Y-116885714D02*
X123885714Y-117552381D01*
X124123810Y-116504762D02*
X124361905Y-117219048D01*
X123742857Y-117219048D01*
X123219048Y-116980952D02*
X123314286Y-116933333D01*
X123361905Y-116885714D01*
X123409524Y-116790476D01*
X123409524Y-116742857D01*
X123361905Y-116647619D01*
X123314286Y-116600000D01*
X123219048Y-116552381D01*
X123028571Y-116552381D01*
X122933333Y-116600000D01*
X122885714Y-116647619D01*
X122838095Y-116742857D01*
X122838095Y-116790476D01*
X122885714Y-116885714D01*
X122933333Y-116933333D01*
X123028571Y-116980952D01*
X123219048Y-116980952D01*
X123314286Y-117028571D01*
X123361905Y-117076190D01*
X123409524Y-117171429D01*
X123409524Y-117361905D01*
X123361905Y-117457143D01*
X123314286Y-117504762D01*
X123219048Y-117552381D01*
X123028571Y-117552381D01*
X122933333Y-117504762D01*
X122885714Y-117457143D01*
X122838095Y-117361905D01*
X122838095Y-117171429D01*
X122885714Y-117076190D01*
X122933333Y-117028571D01*
X123028571Y-116980952D01*
X138552381Y-114157143D02*
X138076190Y-113823809D01*
X138552381Y-113585714D02*
X137552381Y-113585714D01*
X137552381Y-113966667D01*
X137600000Y-114061905D01*
X137647619Y-114109524D01*
X137742857Y-114157143D01*
X137885714Y-114157143D01*
X137980952Y-114109524D01*
X138028571Y-114061905D01*
X138076190Y-113966667D01*
X138076190Y-113585714D01*
X137885714Y-115014286D02*
X138552381Y-115014286D01*
X137504762Y-114776190D02*
X138219048Y-114538095D01*
X138219048Y-115157143D01*
X138552381Y-115585714D02*
X138552381Y-115776190D01*
X138504762Y-115871429D01*
X138457143Y-115919048D01*
X138314286Y-116014286D01*
X138123810Y-116061905D01*
X137742857Y-116061905D01*
X137647619Y-116014286D01*
X137600000Y-115966667D01*
X137552381Y-115871429D01*
X137552381Y-115680952D01*
X137600000Y-115585714D01*
X137647619Y-115538095D01*
X137742857Y-115490476D01*
X137980952Y-115490476D01*
X138076190Y-115538095D01*
X138123810Y-115585714D01*
X138171429Y-115680952D01*
X138171429Y-115871429D01*
X138123810Y-115966667D01*
X138076190Y-116014286D01*
X137980952Y-116061905D01*
X126652381Y-117757143D02*
X126176190Y-117423809D01*
X126652381Y-117185714D02*
X125652381Y-117185714D01*
X125652381Y-117566667D01*
X125700000Y-117661905D01*
X125747619Y-117709524D01*
X125842857Y-117757143D01*
X125985714Y-117757143D01*
X126080952Y-117709524D01*
X126128571Y-117661905D01*
X126176190Y-117566667D01*
X126176190Y-117185714D01*
X125652381Y-118661905D02*
X125652381Y-118185714D01*
X126128571Y-118138095D01*
X126080952Y-118185714D01*
X126033333Y-118280952D01*
X126033333Y-118519048D01*
X126080952Y-118614286D01*
X126128571Y-118661905D01*
X126223810Y-118709524D01*
X126461905Y-118709524D01*
X126557143Y-118661905D01*
X126604762Y-118614286D01*
X126652381Y-118519048D01*
X126652381Y-118280952D01*
X126604762Y-118185714D01*
X126557143Y-118138095D01*
X125652381Y-119328571D02*
X125652381Y-119423810D01*
X125700000Y-119519048D01*
X125747619Y-119566667D01*
X125842857Y-119614286D01*
X126033333Y-119661905D01*
X126271429Y-119661905D01*
X126461905Y-119614286D01*
X126557143Y-119566667D01*
X126604762Y-119519048D01*
X126652381Y-119423810D01*
X126652381Y-119328571D01*
X126604762Y-119233333D01*
X126557143Y-119185714D01*
X126461905Y-119138095D01*
X126271429Y-119090476D01*
X126033333Y-119090476D01*
X125842857Y-119138095D01*
X125747619Y-119185714D01*
X125700000Y-119233333D01*
X125652381Y-119328571D01*
X125557143Y-57057143D02*
X125604762Y-57009524D01*
X125652381Y-56866667D01*
X125652381Y-56771429D01*
X125604762Y-56628571D01*
X125509524Y-56533333D01*
X125414286Y-56485714D01*
X125223810Y-56438095D01*
X125080952Y-56438095D01*
X124890476Y-56485714D01*
X124795238Y-56533333D01*
X124700000Y-56628571D01*
X124652381Y-56771429D01*
X124652381Y-56866667D01*
X124700000Y-57009524D01*
X124747619Y-57057143D01*
X124652381Y-57390476D02*
X124652381Y-58009524D01*
X125033333Y-57676190D01*
X125033333Y-57819048D01*
X125080952Y-57914286D01*
X125128571Y-57961905D01*
X125223810Y-58009524D01*
X125461905Y-58009524D01*
X125557143Y-57961905D01*
X125604762Y-57914286D01*
X125652381Y-57819048D01*
X125652381Y-57533333D01*
X125604762Y-57438095D01*
X125557143Y-57390476D01*
X125652381Y-58961905D02*
X125652381Y-58390476D01*
X125652381Y-58676190D02*
X124652381Y-58676190D01*
X124795238Y-58580952D01*
X124890476Y-58485714D01*
X124938095Y-58390476D01*
X125557143Y-93057143D02*
X125604762Y-93009524D01*
X125652381Y-92866667D01*
X125652381Y-92771429D01*
X125604762Y-92628571D01*
X125509524Y-92533333D01*
X125414286Y-92485714D01*
X125223810Y-92438095D01*
X125080952Y-92438095D01*
X124890476Y-92485714D01*
X124795238Y-92533333D01*
X124700000Y-92628571D01*
X124652381Y-92771429D01*
X124652381Y-92866667D01*
X124700000Y-93009524D01*
X124747619Y-93057143D01*
X124652381Y-93390476D02*
X124652381Y-94009524D01*
X125033333Y-93676190D01*
X125033333Y-93819048D01*
X125080952Y-93914286D01*
X125128571Y-93961905D01*
X125223810Y-94009524D01*
X125461905Y-94009524D01*
X125557143Y-93961905D01*
X125604762Y-93914286D01*
X125652381Y-93819048D01*
X125652381Y-93533333D01*
X125604762Y-93438095D01*
X125557143Y-93390476D01*
X124747619Y-94390476D02*
X124700000Y-94438095D01*
X124652381Y-94533333D01*
X124652381Y-94771429D01*
X124700000Y-94866667D01*
X124747619Y-94914286D01*
X124842857Y-94961905D01*
X124938095Y-94961905D01*
X125080952Y-94914286D01*
X125652381Y-94342857D01*
X125652381Y-94961905D01*
X192333333Y-61752381D02*
X192333333Y-62466667D01*
X192380953Y-62609524D01*
X192476191Y-62704762D01*
X192619048Y-62752381D01*
X192714286Y-62752381D01*
X191333333Y-62752381D02*
X191904762Y-62752381D01*
X191619048Y-62752381D02*
X191619048Y-61752381D01*
X191714286Y-61895238D01*
X191809524Y-61990476D01*
X191904762Y-62038095D01*
X171752381Y-70666667D02*
X172466667Y-70666667D01*
X172609524Y-70619047D01*
X172704762Y-70523809D01*
X172752381Y-70380952D01*
X172752381Y-70285714D01*
X171752381Y-71571429D02*
X171752381Y-71380952D01*
X171800000Y-71285714D01*
X171847619Y-71238095D01*
X171990476Y-71142857D01*
X172180952Y-71095238D01*
X172561905Y-71095238D01*
X172657143Y-71142857D01*
X172704762Y-71190476D01*
X172752381Y-71285714D01*
X172752381Y-71476191D01*
X172704762Y-71571429D01*
X172657143Y-71619048D01*
X172561905Y-71666667D01*
X172323810Y-71666667D01*
X172228571Y-71619048D01*
X172180952Y-71571429D01*
X172133333Y-71476191D01*
X172133333Y-71285714D01*
X172180952Y-71190476D01*
X172228571Y-71142857D01*
X172323810Y-71095238D01*
M02*
